<svg viewBox="0 0 512 512" xmlns="http://www.w3.org/2000/svg" xmlns:xlink="http://www.w3.org/1999/xlink"><rect fill="#fff" height="512" rx="15%" width="512"/><path d="m259.7 348.2-137 32.7v-250.3l137 32z" fill="#e05243"/><path d="m256 348.6 133.3 32.3.1-.3v-249.6l-.1-.3-133.3 32.3v185.7" fill="#8c3123"/><g fill="#e05243"><path id="a" d="m256 64v96.8l58 14.4v-82.2zm133.3 66.6v250.3l25.6-12.8v-224.7zm-133.3 77.1v97l58-7.5v-82.2zm58 129.1-58 14.4v96.8l58-29z"/></g><use fill="#8c3123" transform="matrix(-1 0 0 -1 512 512)" xlink:href="#a"/><path d="m314 175.2-58 10.7-58-10.7 57.9-15.1 58.3 15.1" fill="#5e1f18"/><path d="m314 336.8-58-10.7-58 10.7 57.9 16.1 58.3-16.1" fill="#f2b0a9"/></svg>