<svg width="184" height="33" viewBox="0 0 184 33" fill="none" xmlns="http://www.w3.org/2000/svg">
<path d="M2.69057 18.9159C1.97169 18.197 1.5719 17.2453 1.56523 16.2361C1.55923 15.2255 1.94612 14.2785 2.65528 13.5684C3.36393 12.859 4.30906 12.4719 5.31826 12.479C5.5253 12.4803 5.74371 12.5045 6.00596 12.5543C6.0737 12.568 6.14724 12.5861 6.22028 12.6048C6.36756 12.6436 6.51233 12.6887 6.65972 12.7439C6.7352 12.7724 6.80984 12.8011 6.88502 12.8358C7.01971 12.8989 7.16061 12.9763 7.29937 13.065L7.38671 13.1146C7.40309 13.1235 7.41929 13.1316 7.43465 13.1412L8.08675 13.7068C8.16258 13.7891 8.23698 13.8858 8.31463 13.9874L8.33091 14.0088C8.35901 14.0433 8.38178 14.0688 8.40524 14.0946C8.41362 14.1036 8.42235 14.1124 8.42972 14.1224L8.45134 14.1532L8.47513 14.1786C8.51911 14.225 8.56275 14.2703 8.60723 14.3148C9.63712 15.3447 11.0875 15.9287 12.5868 15.9165C14.0812 15.9043 15.5031 15.2985 16.4873 14.2547L16.5157 14.2246L16.5387 14.1899C16.5645 14.1515 16.5964 14.1182 16.6271 14.0831C16.6522 14.0549 16.6774 14.0263 16.7023 13.9955L16.775 13.9044C16.8175 13.8496 16.8605 13.7939 16.9086 13.7434L17.5068 13.226L17.5234 13.2169L17.5346 13.2057C17.5507 13.1961 17.6467 13.1442 17.6467 13.1442C17.8236 13.0357 17.9573 12.963 18.0825 12.9062C18.1518 12.8752 18.2258 12.8488 18.3017 12.8211C18.441 12.7695 18.5889 12.7242 18.7465 12.6849L18.771 12.6789C18.8326 12.6639 18.8939 12.6488 18.9584 12.6366C19.2178 12.5907 19.4349 12.5693 19.6382 12.571C20.6487 12.5777 21.601 12.977 22.3204 13.6963C23.0392 14.4152 23.4387 15.3669 23.4457 16.3768C23.4586 18.461 21.7722 20.1456 19.6882 20.1319C19.4815 20.1309 19.2587 20.1063 19.0061 20.0561C18.936 20.0437 18.88 20.0286 18.822 20.0134L18.7904 20.0049C18.6336 19.9643 18.486 19.9176 18.3527 19.8675C18.2738 19.8379 18.2004 19.8097 18.1298 19.777C17.9917 19.7132 17.8534 19.6373 17.7049 19.5439C17.6735 19.5247 17.644 19.5083 17.6148 19.4916C17.5972 19.4815 17.5788 19.4719 17.5612 19.461L16.9237 18.9059C16.8519 18.8267 16.7811 18.736 16.7069 18.6405L16.6749 18.5993C16.6507 18.5684 16.6264 18.5417 16.6036 18.5156C16.5942 18.5052 16.5841 18.4951 16.5757 18.4836L16.5582 18.4611L16.5341 18.4329C16.4913 18.3867 16.4478 18.3415 16.4032 18.2969C15.3729 17.2667 13.9223 16.6825 12.4239 16.6942C10.9292 16.706 9.50666 17.3118 8.5214 18.3556L8.4927 18.386L8.46879 18.4205C8.44556 18.4564 8.41585 18.4885 8.38801 18.5208C8.35882 18.5541 8.33099 18.5871 8.303 18.6216C8.28091 18.6488 8.25291 18.684 8.22543 18.7193C8.18598 18.7687 8.14822 18.8181 8.105 18.863L7.48311 19.399C7.46516 19.4105 7.44483 19.4209 7.42451 19.432L7.3576 19.4688C7.19813 19.5684 7.05856 19.6446 6.92687 19.7045C6.85755 19.7355 6.78106 19.7627 6.70323 19.7913C6.56367 19.8425 6.41947 19.8868 6.26469 19.9246C6.19087 19.943 6.12163 19.9602 6.05305 19.973C5.78479 20.0206 5.57364 20.0415 5.36813 20.0393C4.35842 20.0325 3.40807 19.6334 2.69057 18.9159Z" fill="#1F1F1F" fill-opacity="0.2"/>
<path d="M39.7023 18.9159C38.9834 18.197 38.5836 17.2453 38.5769 16.2361C38.571 15.2255 38.9578 14.2785 39.667 13.5684C40.3757 12.859 41.3208 12.4719 42.33 12.479C42.537 12.4803 42.7554 12.5045 43.0177 12.5543C43.0854 12.568 43.159 12.5861 43.232 12.6048C43.3793 12.6436 43.5241 12.6887 43.6714 12.7439C43.7469 12.7724 43.8216 12.8011 43.8967 12.8358C44.0314 12.8989 44.1723 12.9763 44.3111 13.065L44.3984 13.1146C44.4148 13.1235 44.431 13.1316 44.4464 13.1412L45.0985 13.7068C45.1743 13.7891 45.2487 13.8858 45.3263 13.9874L45.3426 14.0088C45.3707 14.0433 45.3935 14.0688 45.417 14.0946C45.4253 14.1036 45.4341 14.1124 45.4414 14.1224L45.4631 14.1532L45.4868 14.1786C45.5308 14.225 45.5745 14.2703 45.6189 14.3148C46.6488 15.3447 48.0993 15.9287 49.5986 15.9165C51.0929 15.9043 52.5148 15.2985 53.499 14.2547L53.5274 14.2246L53.5504 14.1899C53.5762 14.1515 53.6081 14.1182 53.6388 14.0831C53.664 14.0549 53.6891 14.0263 53.7141 13.9955L53.7867 13.9044C53.8292 13.8496 53.8722 13.7939 53.9203 13.7434L54.5185 13.226L54.5351 13.2169L54.5463 13.2057C54.5624 13.1961 54.6584 13.1442 54.6584 13.1442C54.8353 13.0357 54.969 12.963 55.0942 12.9062C55.1636 12.8752 55.2375 12.8488 55.3135 12.8211C55.4527 12.7695 55.6006 12.7242 55.7583 12.6849L55.7827 12.6789C55.8443 12.6639 55.9056 12.6488 55.9701 12.6366C56.2295 12.5907 56.4466 12.5693 56.6499 12.571C57.6605 12.5777 58.6127 12.977 59.3321 13.6963C60.0509 14.4152 60.4504 15.3669 60.4574 16.3768C60.4703 18.461 58.784 20.1456 56.7 20.1319C56.4933 20.1309 56.2704 20.1063 56.0179 20.0561C55.9477 20.0437 55.8917 20.0286 55.8337 20.0134L55.8022 20.0049C55.6454 19.9643 55.4977 19.9176 55.3644 19.8675C55.2856 19.8379 55.2121 19.8097 55.1415 19.777C55.0034 19.7132 54.8651 19.6373 54.7166 19.5439C54.6852 19.5247 54.6557 19.5083 54.6265 19.4916C54.609 19.4815 54.5905 19.4719 54.573 19.461L53.9354 18.9059C53.8636 18.8267 53.7929 18.736 53.7186 18.6405L53.6866 18.5993C53.6624 18.5684 53.6381 18.5417 53.6154 18.5156C53.6059 18.5052 53.5958 18.4951 53.5874 18.4836L53.57 18.4611L53.5458 18.4329C53.503 18.3867 53.4595 18.3415 53.4149 18.2969C52.3847 17.2667 50.9341 16.6825 49.4356 16.6942C47.9409 16.706 46.5184 17.3118 45.5331 18.3556L45.5044 18.386L45.4805 18.4205C45.4573 18.4564 45.4276 18.4885 45.3997 18.5208C45.3705 18.5541 45.3427 18.5871 45.3147 18.6216C45.2926 18.6488 45.2646 18.684 45.2372 18.7193C45.1977 18.7687 45.1599 18.8181 45.1167 18.863L44.4948 19.399C44.4769 19.4105 44.4566 19.4209 44.4362 19.432L44.3693 19.4688C44.2098 19.5684 44.0703 19.6446 43.9386 19.7045C43.8693 19.7355 43.7928 19.7627 43.7149 19.7913C43.5754 19.8425 43.4312 19.8868 43.2764 19.9246C43.2026 19.943 43.1334 19.9602 43.0648 19.973C42.7965 20.0206 42.5854 20.0415 42.3798 20.0393C41.3701 20.0325 40.4198 19.6334 39.7023 18.9159Z" fill="#1F1F1F" fill-opacity="0.2"/>
<path d="M76.7101 18.6913C75.9912 17.9724 75.5914 17.0207 75.5848 16.0115C75.5788 15.0009 75.9657 14.0539 76.6748 13.3437C77.3835 12.6344 78.3286 12.2473 79.3378 12.2543C79.5448 12.2557 79.7632 12.2799 80.0255 12.3297C80.0932 12.3433 80.1668 12.3615 80.2398 12.3802C80.3871 12.419 80.5319 12.4641 80.6793 12.5193C80.7547 12.5478 80.8294 12.5765 80.9046 12.6112C81.0392 12.6743 81.1801 12.7517 81.3189 12.8404L81.4062 12.8899C81.4226 12.8989 81.4388 12.907 81.4542 12.9166L82.1063 13.4822C82.1821 13.5645 82.2565 13.6612 82.3342 13.7628L82.3504 13.7842C82.3785 13.8187 82.4013 13.8441 82.4248 13.87C82.4332 13.879 82.4419 13.8878 82.4493 13.8978L82.4709 13.9286L82.4947 13.954C82.5386 14.0004 82.5823 14.0457 82.6268 14.0902C83.6567 15.1201 85.1071 15.7041 86.6064 15.6918C88.1007 15.6797 89.5226 15.0739 90.5068 14.0301L90.5352 14L90.5583 13.9653C90.584 13.9269 90.6159 13.8936 90.6466 13.8585C90.6718 13.8303 90.6969 13.8017 90.7219 13.7709L90.7946 13.6798C90.837 13.625 90.88 13.5693 90.9281 13.5188L91.5264 13.0013L91.5429 12.9923L91.5541 12.9811C91.5702 12.9715 91.6662 12.9196 91.6662 12.9196C91.8432 12.8111 91.9768 12.7384 92.102 12.6816C92.1714 12.6506 92.2453 12.6242 92.3213 12.5965C92.4605 12.5448 92.6084 12.4996 92.7661 12.4603L92.7905 12.4543C92.8521 12.4393 92.9134 12.4242 92.9779 12.412C93.2373 12.3661 93.4544 12.3447 93.6577 12.3464C94.6683 12.3531 95.6205 12.7523 96.3399 13.4717C97.0588 14.1906 97.4582 15.1423 97.4652 16.1522C97.4781 18.2364 95.7918 19.921 93.7078 19.9073C93.5011 19.9063 93.2782 19.8817 93.0257 19.8315C92.9556 19.8191 92.8995 19.804 92.8415 19.7888L92.81 19.7803C92.6532 19.7397 92.5055 19.693 92.3723 19.6428C92.2934 19.6133 92.2199 19.5851 92.1493 19.5523C92.0113 19.4886 91.8729 19.4127 91.7244 19.3193C91.693 19.3001 91.6635 19.2837 91.6343 19.267C91.6168 19.2569 91.5984 19.2473 91.5808 19.2364L90.9432 18.6813C90.8715 18.6021 90.8007 18.5114 90.7265 18.4159L90.6944 18.3747C90.6702 18.3438 90.6459 18.3171 90.6232 18.291C90.6137 18.2805 90.6037 18.2705 90.5953 18.259L90.5778 18.2365L90.5536 18.2083C90.5108 18.1621 90.4674 18.1169 90.4227 18.0723C89.3925 17.0421 87.9419 16.4579 86.4434 16.4696C84.9487 16.4814 83.5262 17.0872 82.5409 18.131L82.5122 18.1614L82.4883 18.1959C82.4651 18.2318 82.4354 18.2639 82.4075 18.2962C82.3784 18.3295 82.3505 18.3625 82.3225 18.397C82.3004 18.4242 82.2724 18.4594 82.245 18.4947C82.2055 18.5441 82.1678 18.5935 82.1245 18.6384L81.5026 19.1744C81.4847 19.1859 81.4644 19.1963 81.444 19.2074L81.3771 19.2442C81.2177 19.3438 81.0781 19.42 80.9464 19.4799C80.8771 19.5109 80.8006 19.5381 80.7228 19.5666C80.5832 19.6179 80.439 19.6622 80.2842 19.7C80.2104 19.7184 80.1412 19.7356 80.0726 19.7484C79.8043 19.796 79.5932 19.8169 79.3877 19.8147C78.378 19.8079 77.4276 19.4088 76.7101 18.6913Z" fill="#1F1F1F" fill-opacity="0.2"/>
<path d="M92.7504 30.6343C92.7504 31.2809 93.2745 31.8078 93.9211 31.8149C95.6728 31.8342 97.3955 31.827 99.0227 31.1651C101.011 30.3561 102.818 29.1704 104.34 27.6756C105.862 26.1808 107.069 24.4062 107.893 22.4531C108.717 20.5001 109.141 18.4068 109.141 16.2929C109.141 14.1789 108.717 12.0856 107.893 10.1326C107.069 8.17956 105.862 6.40497 104.34 4.91018C102.818 3.41538 101.011 2.22964 99.0227 1.42067C97.3952 0.758594 95.6721 0.359483 93.9202 0.236362C93.2752 0.191035 92.7504 0.719466 92.7504 1.36604L92.7504 6.63434C92.7504 7.28091 93.2833 7.81045 93.8975 8.01248C94.5792 8.23672 95.2476 8.59685 95.8865 8.85677C96.8808 9.26126 97.7842 9.85413 98.5452 10.6015C99.3062 11.3489 99.9098 12.2362 100.322 13.2127C100.734 14.1893 100.946 15.2359 100.946 16.2929C100.946 17.3499 100.734 18.3965 100.322 19.373C99.9098 20.3495 99.3062 21.2368 98.5452 21.9842C97.7842 22.7316 96.8808 23.3245 95.8865 23.729C95.2538 23.9864 94.5922 24.1643 93.9173 24.2596C93.2771 24.3501 92.7504 24.8658 92.7504 25.5124L92.7504 30.6343Z" fill="#1F1F1F" fill-opacity="0.2"/>
<path d="M86.3864 7.60976C85.3697 7.60976 84.4138 7.21365 83.6947 6.49451C82.9761 5.77658 82.5801 4.82104 82.5801 3.80428C82.5801 2.788 82.9752 1.83317 83.693 1.11597C84.4126 0.396107 85.369 0 86.3859 0C87.4014 0 88.3568 0.395379 89.0742 1.11355C89.7938 1.83269 90.1898 2.78872 90.1898 3.805C90.1898 4.82176 89.794 5.7773 89.0749 6.49644C88.3568 7.21413 87.4019 7.60976 86.3864 7.60976Z" fill="#1F1F1F" fill-opacity="0.2"/>
<path d="M86.3864 32.6098C85.3697 32.6098 84.4138 32.2136 83.6947 31.4945C82.9761 30.7766 82.5801 29.821 82.5801 28.8043C82.5801 27.788 82.9752 26.8332 83.693 26.116C84.4126 25.3961 85.369 25 86.3859 25C87.4014 25 88.3568 25.3954 89.0742 26.1135C89.7938 26.8327 90.1898 27.7887 90.1898 28.805C90.1898 29.8218 89.794 30.7773 89.0749 31.4964C88.3568 32.2141 87.4019 32.6098 86.3864 32.6098Z" fill="#1F1F1F" fill-opacity="0.2"/>
<path d="M123.833 18.9159C123.114 18.197 122.714 17.2453 122.708 16.2361C122.702 15.2255 123.089 14.2785 123.798 13.5684C124.507 12.859 125.452 12.4719 126.461 12.479C126.668 12.4803 126.886 12.5045 127.149 12.5543C127.216 12.568 127.29 12.5861 127.363 12.6048C127.51 12.6436 127.655 12.6887 127.802 12.7439C127.878 12.7724 127.952 12.8011 128.028 12.8358C128.162 12.8989 128.303 12.9763 128.442 13.065L128.529 13.1146C128.546 13.1235 128.562 13.1316 128.577 13.1412L129.229 13.7068C129.305 13.7891 129.38 13.8858 129.457 13.9874L129.473 14.0088C129.502 14.0433 129.524 14.0688 129.548 14.0946C129.556 14.1036 129.565 14.1124 129.572 14.1224L129.594 14.1532L129.618 14.1786C129.662 14.225 129.705 14.2703 129.75 14.3148C130.78 15.3447 132.23 15.9287 133.729 15.9165C135.224 15.9043 136.646 15.2985 137.63 14.2547L137.658 14.2246L137.681 14.1899C137.707 14.1515 137.739 14.1182 137.77 14.0831C137.795 14.0549 137.82 14.0263 137.845 13.9955L137.918 13.9044C137.96 13.8496 138.003 13.7939 138.051 13.7434L138.649 13.226L138.666 13.2169L138.677 13.2057C138.693 13.1961 138.789 13.1442 138.789 13.1442C138.966 13.0357 139.1 12.963 139.225 12.9062C139.294 12.8752 139.368 12.8488 139.444 12.8211C139.584 12.7695 139.731 12.7242 139.889 12.6849L139.914 12.6789C139.975 12.6639 140.036 12.6488 140.101 12.6366C140.36 12.5907 140.577 12.5693 140.781 12.571C141.791 12.5777 142.744 12.977 143.463 13.6963C144.182 14.4152 144.581 15.3669 144.588 16.3768C144.601 18.461 142.915 20.1456 140.831 20.1319C140.624 20.1309 140.401 20.1063 140.149 20.0561C140.079 20.0437 140.023 20.0286 139.965 20.0134L139.933 20.0049C139.776 19.9643 139.629 19.9176 139.495 19.8675C139.416 19.8379 139.343 19.8097 139.272 19.777C139.134 19.7132 138.996 19.6373 138.847 19.5439C138.816 19.5247 138.787 19.5083 138.757 19.4916C138.74 19.4815 138.721 19.4719 138.704 19.461L138.066 18.9059C137.995 18.8267 137.924 18.736 137.85 18.6405L137.817 18.5993C137.793 18.5684 137.769 18.5417 137.746 18.5156C137.737 18.5052 137.727 18.4951 137.718 18.4836L137.701 18.4611L137.677 18.4329C137.634 18.3867 137.59 18.3415 137.546 18.2969C136.516 17.2667 135.065 16.6825 133.566 16.6942C132.072 16.706 130.649 17.3118 129.664 18.3556L129.635 18.386L129.611 18.4205C129.588 18.4564 129.558 18.4885 129.531 18.5208C129.501 18.5541 129.474 18.5871 129.446 18.6216C129.423 18.6488 129.395 18.684 129.368 18.7193C129.329 18.7687 129.291 18.8181 129.248 18.863L128.626 19.399C128.608 19.4105 128.587 19.4209 128.567 19.432L128.5 19.4688C128.341 19.5684 128.201 19.6446 128.069 19.7045C128 19.7355 127.924 19.7627 127.846 19.7913C127.706 19.8425 127.562 19.8868 127.407 19.9246C127.333 19.943 127.264 19.9602 127.196 19.973C126.927 20.0206 126.716 20.0415 126.511 20.0393C125.501 20.0325 124.551 19.6334 123.833 18.9159Z" fill="#1F1F1F" fill-opacity="0.2"/>
<path d="M160.843 18.9159C160.124 18.197 159.724 17.2453 159.718 16.2361C159.712 15.2255 160.098 14.2785 160.808 13.5684C161.516 12.859 162.461 12.4719 163.471 12.479C163.678 12.4803 163.896 12.5045 164.158 12.5543C164.226 12.568 164.3 12.5861 164.373 12.6048C164.52 12.6436 164.665 12.6887 164.812 12.7439C164.888 12.7724 164.962 12.8011 165.037 12.8358C165.172 12.8989 165.313 12.9763 165.452 13.065L165.539 13.1146C165.555 13.1235 165.572 13.1316 165.587 13.1412L166.239 13.7068C166.315 13.7891 166.389 13.8858 166.467 13.9874L166.483 14.0088C166.511 14.0433 166.534 14.0688 166.558 14.0946C166.566 14.1036 166.575 14.1124 166.582 14.1224L166.604 14.1532L166.627 14.1786C166.671 14.225 166.715 14.2703 166.76 14.3148C167.789 15.3447 169.24 15.9287 170.739 15.9165C172.234 15.9043 173.655 15.2985 174.64 14.2547L174.668 14.2246L174.691 14.1899C174.717 14.1515 174.749 14.1182 174.779 14.0831C174.805 14.0549 174.83 14.0263 174.855 13.9955L174.927 13.9044C174.97 13.8496 175.013 13.7939 175.061 13.7434L175.659 13.226L175.676 13.2169L175.687 13.2057C175.703 13.1961 175.799 13.1442 175.799 13.1442C175.976 13.0357 176.11 12.963 176.235 12.9062C176.304 12.8752 176.378 12.8488 176.454 12.8211C176.593 12.7695 176.741 12.7242 176.899 12.6849L176.923 12.6789C176.985 12.6639 177.046 12.6488 177.111 12.6366C177.37 12.5907 177.587 12.5693 177.791 12.571C178.801 12.5777 179.753 12.977 180.473 13.6963C181.192 14.4152 181.591 15.3669 181.598 16.3768C181.611 18.461 179.925 20.1456 177.841 20.1319C177.634 20.1309 177.411 20.1063 177.158 20.0561C177.088 20.0437 177.032 20.0286 176.974 20.0134L176.943 20.0049C176.786 19.9643 176.638 19.9176 176.505 19.8675C176.426 19.8379 176.353 19.8097 176.282 19.777C176.144 19.7132 176.006 19.6373 175.857 19.5439C175.826 19.5247 175.796 19.5083 175.767 19.4916C175.75 19.4815 175.731 19.4719 175.714 19.461L175.076 18.9059C175.004 18.8267 174.933 18.736 174.859 18.6405L174.827 18.5993C174.803 18.5684 174.779 18.5417 174.756 18.5156C174.747 18.5052 174.736 18.4951 174.728 18.4836L174.711 18.4611L174.686 18.4329C174.644 18.3867 174.6 18.3415 174.556 18.2969C173.525 17.2667 172.075 16.6825 170.576 16.6942C169.082 16.706 167.659 17.3118 166.674 18.3556L166.645 18.386L166.621 18.4205C166.598 18.4564 166.568 18.4885 166.54 18.5208C166.511 18.5541 166.483 18.5871 166.455 18.6216C166.433 18.6488 166.405 18.684 166.378 18.7193C166.338 18.7687 166.301 18.8181 166.257 18.863L165.635 19.399C165.618 19.4105 165.597 19.4209 165.577 19.432L165.51 19.4688C165.35 19.5684 165.211 19.6446 165.079 19.7045C165.01 19.7355 164.933 19.7627 164.856 19.7913C164.716 19.8425 164.572 19.8868 164.417 19.9246C164.343 19.943 164.274 19.9602 164.205 19.973C163.937 20.0206 163.726 20.0415 163.52 20.0393C162.511 20.0325 161.56 19.6334 160.843 18.9159Z" fill="#1F1F1F" fill-opacity="0.2"/>
</svg>
