<svg width="237" height="41" viewBox="0 0 237 41" fill="none" xmlns="http://www.w3.org/2000/svg">
<g filter="url(#filter0_d_1233_14507)">
<path d="M1.70508 6.07441C1.70508 3.27189 3.97697 1 6.77949 1H230.221C233.024 1 235.296 3.27189 235.296 6.07441V33.1312C235.296 35.9337 233.024 38.2056 230.221 38.2056H6.77949C3.97697 38.2056 1.70508 35.9337 1.70508 33.1312V6.07441Z" fill="#020617"/>
<ellipse cx="21.2014" cy="19.7594" rx="10.1507" ry="10.147" fill="white"/>
<path d="M18.8906 16.993H24.1103M24.1103 16.993V22.2126M24.1103 16.993L18.8906 22.2126" stroke="#111827" stroke-width="1.04602" stroke-linecap="round" stroke-linejoin="round"/>
<path d="M41.9058 24.1028C41.6991 24.1028 41.5253 24.0323 41.3844 23.8914C41.2434 23.7505 41.173 23.5767 41.173 23.37V13.829C41.173 13.6129 41.2434 13.4391 41.3844 13.3075C41.5253 13.1666 41.6991 13.0961 41.9058 13.0961H44.4567C45.2647 13.0961 45.9975 13.2324 46.6552 13.5048C47.3222 13.7679 47.9 14.1484 48.3886 14.6464C48.8772 15.1349 49.253 15.7127 49.516 16.3798C49.7791 17.0469 49.9107 17.7844 49.9107 18.5924C49.9107 19.4004 49.7791 20.1427 49.516 20.8191C49.253 21.4862 48.8772 22.0687 48.3886 22.5667C47.9 23.0552 47.3222 23.4357 46.6552 23.7082C45.9975 23.9713 45.2647 24.1028 44.4567 24.1028H41.9058ZM42.6386 22.8062H44.4567C45.2459 22.8062 45.9411 22.6277 46.5424 22.2707C47.1531 21.9043 47.6323 21.4063 47.9799 20.7768C48.3275 20.138 48.5013 19.4098 48.5013 18.5924C48.5013 17.7656 48.3275 17.0375 47.9799 16.408C47.6323 15.7785 47.1531 15.2853 46.5424 14.9282C45.9411 14.5712 45.2459 14.3927 44.4567 14.3927H42.6386V22.8062ZM55.6917 24.1592C54.9118 24.1592 54.2166 23.9948 53.6059 23.6659C53.0046 23.3277 52.5301 22.8673 52.1825 22.2848C51.8443 21.6929 51.6751 21.0164 51.6751 20.2554C51.6751 19.485 51.8349 18.8085 52.1543 18.226C52.4831 17.6341 52.9341 17.1737 53.5072 16.8449C54.0804 16.5067 54.738 16.3375 55.4803 16.3375C56.2131 16.3375 56.8426 16.502 57.3687 16.8308C57.8949 17.1502 58.2942 17.5965 58.5666 18.1696C58.8485 18.7334 58.9894 19.3863 58.9894 20.1286C58.9894 20.3071 58.9284 20.4574 58.8062 20.5795C58.6841 20.6923 58.5291 20.7487 58.3411 20.7487H52.6617V19.6212H58.2989L57.7211 20.0158C57.7117 19.5461 57.6177 19.128 57.4392 18.7615C57.2607 18.3857 57.007 18.0898 56.6782 17.8737C56.3493 17.6576 55.95 17.5495 55.4803 17.5495C54.9447 17.5495 54.4844 17.667 54.0991 17.9019C53.7233 18.1367 53.4368 18.4609 53.2395 18.8743C53.0422 19.2783 52.9435 19.7387 52.9435 20.2554C52.9435 20.7721 53.061 21.2325 53.2958 21.6365C53.5307 22.0405 53.8549 22.36 54.2683 22.5948C54.6817 22.8297 55.1561 22.9472 55.6917 22.9472C55.9829 22.9472 56.2789 22.8955 56.5795 22.7921C56.8896 22.6794 57.1385 22.5526 57.3264 22.4116C57.4674 22.3083 57.6177 22.2566 57.7774 22.2566C57.9465 22.2472 58.0922 22.2942 58.2143 22.3975C58.374 22.5385 58.4586 22.6935 58.468 22.8626C58.4774 23.0317 58.4022 23.1774 58.2425 23.2995C57.9231 23.5532 57.5238 23.7599 57.0446 23.9196C56.5748 24.0793 56.1238 24.1592 55.6917 24.1592ZM61.5416 27.4006C61.3349 27.4006 61.1611 27.3301 61.0201 27.1892C60.8886 27.0576 60.8228 26.8885 60.8228 26.6818V20.2554C60.8322 19.5132 61.006 18.8461 61.3443 18.2542C61.6825 17.6623 62.1429 17.1972 62.7254 16.859C63.3079 16.5114 63.9656 16.3375 64.6984 16.3375C65.4407 16.3375 66.103 16.5114 66.6855 16.859C67.2681 17.1972 67.7284 17.6623 68.0667 18.2542C68.4143 18.8461 68.5881 19.5132 68.5881 20.2554C68.5881 20.9976 68.4284 21.6647 68.1089 22.2566C67.7989 22.8391 67.3714 23.3042 66.8265 23.6518C66.2815 23.9901 65.6661 24.1592 64.9803 24.1592C64.426 24.1592 63.9139 24.0464 63.4441 23.8209C62.9838 23.5861 62.5892 23.2713 62.2603 22.8767V26.6818C62.2603 26.8885 62.1946 27.0576 62.063 27.1892C61.9315 27.3301 61.7577 27.4006 61.5416 27.4006ZM64.6984 22.8908C65.1776 22.8908 65.6051 22.7781 65.9809 22.5526C66.3567 22.3177 66.6527 22.0029 66.8687 21.6083C67.0942 21.2043 67.207 20.7534 67.207 20.2554C67.207 19.7481 67.0942 19.2971 66.8687 18.9025C66.6527 18.4985 66.3567 18.1837 65.9809 17.9582C65.6051 17.7234 65.1776 17.6059 64.6984 17.6059C64.2287 17.6059 63.8012 17.7234 63.416 17.9582C63.0401 18.1837 62.7442 18.4985 62.5281 18.9025C62.312 19.2971 62.204 19.7481 62.204 20.2554C62.204 20.7534 62.312 21.2043 62.5281 21.6083C62.7442 22.0029 63.0401 22.3177 63.416 22.5526C63.8012 22.7781 64.2287 22.8908 64.6984 22.8908ZM72.5641 24.1028C72.1507 24.1028 71.7843 23.9901 71.4648 23.7646C71.1454 23.5391 70.8964 23.2337 70.7179 22.8485C70.5394 22.4539 70.4501 22.0029 70.4501 21.4956V13.8008C70.4501 13.5941 70.5159 13.425 70.6474 13.2934C70.779 13.1619 70.9481 13.0961 71.1548 13.0961C71.3615 13.0961 71.5306 13.1619 71.6621 13.2934C71.7937 13.425 71.8594 13.5941 71.8594 13.8008V21.4956C71.8594 21.8432 71.9252 22.1298 72.0567 22.3553C72.1883 22.5808 72.3574 22.6935 72.5641 22.6935H72.9164C73.1043 22.6935 73.2547 22.7593 73.3674 22.8908C73.4895 23.0223 73.5506 23.1914 73.5506 23.3981C73.5506 23.6048 73.4613 23.774 73.2828 23.9055C73.1043 24.037 72.8741 24.1028 72.5923 24.1028H72.5641ZM78.0256 24.1592C77.2646 24.1592 76.5928 23.9948 76.0103 23.6659C75.4278 23.3277 74.9674 22.8673 74.6292 22.2848C74.3003 21.6929 74.1359 21.0164 74.1359 20.2554C74.1359 19.485 74.3003 18.8085 74.6292 18.226C74.9674 17.6341 75.4278 17.1737 76.0103 16.8449C76.5928 16.5067 77.2646 16.3375 78.0256 16.3375C78.7772 16.3375 79.4443 16.5067 80.0268 16.8449C80.6093 17.1737 81.065 17.6341 81.3938 18.226C81.732 18.8085 81.9012 19.485 81.9012 20.2554C81.9012 21.0164 81.7367 21.6929 81.4079 22.2848C81.0791 22.8673 80.6234 23.3277 80.0409 23.6659C79.4584 23.9948 78.7866 24.1592 78.0256 24.1592ZM78.0256 22.8908C78.5141 22.8908 78.9463 22.7781 79.3221 22.5526C79.698 22.3271 79.9892 22.017 80.1959 21.6224C80.412 21.2278 80.52 20.7721 80.52 20.2554C80.52 19.7387 80.412 19.283 80.1959 18.8884C79.9892 18.4844 79.698 18.1696 79.3221 17.9441C78.9463 17.7187 78.5141 17.6059 78.0256 17.6059C77.537 17.6059 77.1048 17.7187 76.729 17.9441C76.3532 18.1696 76.0573 18.4844 75.8412 18.8884C75.6251 19.283 75.517 19.7387 75.517 20.2554C75.517 20.7721 75.6251 21.2278 75.8412 21.6224C76.0573 22.017 76.3532 22.3271 76.729 22.5526C77.1048 22.7781 77.537 22.8908 78.0256 22.8908ZM84.995 27.4851C84.9011 27.4851 84.7883 27.4569 84.6568 27.4006C84.2434 27.2127 84.1307 26.9167 84.3186 26.5127L88.6169 16.8026C88.8048 16.408 89.1008 16.2953 89.5048 16.4644C89.9276 16.6429 90.045 16.9388 89.8571 17.3522L85.5447 27.0482C85.4319 27.3395 85.2487 27.4851 84.995 27.4851ZM86.658 23.7928C86.4795 23.8679 86.3104 23.8773 86.1507 23.8209C86.0003 23.7552 85.8782 23.633 85.7842 23.4545L82.5569 17.3241C82.463 17.1455 82.4489 16.9764 82.5147 16.8167C82.5898 16.6476 82.7167 16.5254 82.8952 16.4503C83.0737 16.3751 83.2428 16.3704 83.4025 16.4362C83.5622 16.4926 83.6844 16.61 83.7689 16.7885L86.8553 22.919C86.9493 23.0975 86.9821 23.2713 86.954 23.4404C86.9352 23.6001 86.8365 23.7176 86.658 23.7928ZM98.8348 24.1592C98.102 24.1592 97.4396 23.9901 96.8477 23.6518C96.2652 23.3042 95.8001 22.8344 95.4525 22.2425C95.1143 21.6506 94.9451 20.9835 94.9451 20.2413C94.9451 19.4991 95.1002 18.8367 95.4102 18.2542C95.7297 17.6623 96.1618 17.1972 96.7068 16.859C97.2517 16.5114 97.8671 16.3375 98.553 16.3375C99.1073 16.3375 99.6193 16.455 100.089 16.6899C100.559 16.9154 100.953 17.2254 101.273 17.62V13.8149C101.273 13.5988 101.339 13.425 101.47 13.2934C101.611 13.1619 101.785 13.0961 101.992 13.0961C102.208 13.0961 102.382 13.1619 102.513 13.2934C102.645 13.425 102.71 13.5988 102.71 13.8149V20.2413C102.71 20.9835 102.537 21.6506 102.189 22.2425C101.851 22.8344 101.39 23.3042 100.808 23.6518C100.225 23.9901 99.5677 24.1592 98.8348 24.1592ZM98.8348 22.8908C99.314 22.8908 99.7415 22.7781 100.117 22.5526C100.493 22.3177 100.789 21.9982 101.005 21.5942C101.221 21.1902 101.329 20.7393 101.329 20.2413C101.329 19.734 101.221 19.283 101.005 18.8884C100.789 18.4938 100.493 18.1837 100.117 17.9582C99.7415 17.7234 99.314 17.6059 98.8348 17.6059C98.3651 17.6059 97.9376 17.7234 97.5524 17.9582C97.1765 18.1837 96.8759 18.4938 96.6504 18.8884C96.4343 19.283 96.3263 19.734 96.3263 20.2413C96.3263 20.7393 96.4343 21.1902 96.6504 21.5942C96.8759 21.9982 97.1765 22.3177 97.5524 22.5526C97.9376 22.7781 98.3651 22.8908 98.8348 22.8908ZM108.462 24.1592C107.776 24.1592 107.161 23.9901 106.616 23.6518C106.071 23.3042 105.639 22.8391 105.319 22.2566C105.009 21.6647 104.854 20.9976 104.854 20.2554C104.854 19.5132 105.023 18.8461 105.362 18.2542C105.709 17.6623 106.174 17.1972 106.757 16.859C107.349 16.5114 108.011 16.3375 108.744 16.3375C109.477 16.3375 110.134 16.5114 110.717 16.859C111.3 17.1972 111.76 17.6623 112.098 18.2542C112.446 18.8461 112.62 19.5132 112.62 20.2554H112.07C112.07 20.9976 111.91 21.6647 111.591 22.2566C111.281 22.8391 110.853 23.3042 110.308 23.6518C109.763 23.9901 109.148 24.1592 108.462 24.1592ZM108.744 22.8908C109.223 22.8908 109.651 22.7781 110.026 22.5526C110.402 22.3177 110.698 22.0029 110.914 21.6083C111.13 21.2043 111.238 20.7534 111.238 20.2554C111.238 19.7481 111.13 19.2971 110.914 18.9025C110.698 18.4985 110.402 18.1837 110.026 17.9582C109.651 17.7234 109.223 17.6059 108.744 17.6059C108.274 17.6059 107.847 17.7234 107.462 17.9582C107.086 18.1837 106.785 18.4985 106.56 18.9025C106.343 19.2971 106.235 19.7481 106.235 20.2554C106.235 20.7534 106.343 21.2043 106.56 21.6083C106.785 22.0029 107.086 22.3177 107.462 22.5526C107.847 22.7781 108.274 22.8908 108.744 22.8908ZM111.901 24.1169C111.694 24.1169 111.52 24.0511 111.379 23.9196C111.248 23.7787 111.182 23.6048 111.182 23.3981V21.2419L111.45 19.7481L112.62 20.2554V23.3981C112.62 23.6048 112.549 23.7787 112.408 23.9196C112.277 24.0511 112.108 24.1169 111.901 24.1169ZM117.563 24.1028C117.094 24.1028 116.671 23.9854 116.295 23.7505C115.919 23.5062 115.623 23.1774 115.407 22.764C115.191 22.3506 115.083 21.8855 115.083 21.3688V14.6464C115.083 14.4397 115.149 14.2706 115.28 14.139C115.412 14.0075 115.581 13.9417 115.788 13.9417C115.994 13.9417 116.164 14.0075 116.295 14.139C116.427 14.2706 116.492 14.4397 116.492 14.6464V21.3688C116.492 21.7446 116.596 22.0593 116.802 22.313C117.009 22.5667 117.263 22.6935 117.563 22.6935H118.043C118.212 22.6935 118.353 22.7593 118.465 22.8908C118.588 23.0223 118.649 23.1914 118.649 23.3981C118.649 23.6048 118.569 23.774 118.409 23.9055C118.259 24.037 118.061 24.1028 117.817 24.1028H117.563ZM114.435 17.8878C114.238 17.8878 114.078 17.8314 113.956 17.7187C113.834 17.6059 113.772 17.465 113.772 17.2959C113.772 17.108 113.834 16.9576 113.956 16.8449C114.078 16.7321 114.238 16.6758 114.435 16.6758H117.69C117.888 16.6758 118.047 16.7321 118.169 16.8449C118.292 16.9576 118.353 17.108 118.353 17.2959C118.353 17.465 118.292 17.6059 118.169 17.7187C118.047 17.8314 117.888 17.8878 117.69 17.8878H114.435ZM129.773 24.2437C128.946 24.2437 128.19 24.1075 127.504 23.835C126.818 23.5532 126.226 23.1633 125.728 22.6653C125.239 22.158 124.859 21.5614 124.587 20.8755C124.314 20.1802 124.178 19.4192 124.178 18.5924C124.178 17.7656 124.314 17.0093 124.587 16.3234C124.859 15.6376 125.239 15.0457 125.728 14.5477C126.226 14.0404 126.818 13.6505 127.504 13.378C128.19 13.0961 128.946 12.9552 129.773 12.9552C130.6 12.9552 131.351 13.0961 132.028 13.378C132.714 13.6505 133.305 14.0404 133.803 14.5477C134.301 15.0457 134.687 15.6376 134.959 16.3234C135.231 17.0093 135.368 17.7656 135.368 18.5924C135.368 19.4192 135.231 20.1802 134.959 20.8755C134.687 21.5614 134.301 22.158 133.803 22.6653C133.305 23.1633 132.714 23.5532 132.028 23.835C131.351 24.1075 130.6 24.2437 129.773 24.2437ZM129.773 22.919C130.383 22.919 130.942 22.8109 131.45 22.5948C131.967 22.3694 132.413 22.064 132.789 21.6788C133.164 21.2842 133.451 20.8238 133.648 20.2977C133.855 19.7715 133.958 19.2031 133.958 18.5924C133.958 17.9817 133.855 17.4133 133.648 16.8872C133.451 16.361 133.164 15.9054 132.789 15.5201C132.413 15.1255 131.967 14.8202 131.45 14.6041C130.942 14.388 130.383 14.28 129.773 14.28C129.162 14.28 128.598 14.388 128.082 14.6041C127.574 14.8202 127.133 15.1255 126.757 15.5201C126.39 15.9054 126.104 16.361 125.897 16.8872C125.69 17.4133 125.587 17.9817 125.587 18.5924C125.587 19.2031 125.69 19.7715 125.897 20.2977C126.104 20.8238 126.39 21.2842 126.757 21.6788C127.133 22.064 127.574 22.3694 128.082 22.5948C128.598 22.8109 129.162 22.919 129.773 22.919ZM138.241 27.4006C138.035 27.4006 137.861 27.3301 137.72 27.1892C137.588 27.0576 137.522 26.8885 137.522 26.6818V20.2554C137.532 19.5132 137.706 18.8461 138.044 18.2542C138.382 17.6623 138.843 17.1972 139.425 16.859C140.008 16.5114 140.665 16.3375 141.398 16.3375C142.14 16.3375 142.803 16.5114 143.385 16.859C143.968 17.1972 144.428 17.6623 144.766 18.2542C145.114 18.8461 145.288 19.5132 145.288 20.2554C145.288 20.9976 145.128 21.6647 144.809 22.2566C144.499 22.8391 144.071 23.3042 143.526 23.6518C142.981 23.9901 142.366 24.1592 141.68 24.1592C141.126 24.1592 140.614 24.0464 140.144 23.8209C139.683 23.5861 139.289 23.2713 138.96 22.8767V26.6818C138.96 26.8885 138.894 27.0576 138.763 27.1892C138.631 27.3301 138.457 27.4006 138.241 27.4006ZM141.398 22.8908C141.877 22.8908 142.305 22.7781 142.681 22.5526C143.056 22.3177 143.352 22.0029 143.568 21.6083C143.794 21.2043 143.907 20.7534 143.907 20.2554C143.907 19.7481 143.794 19.2971 143.568 18.9025C143.352 18.4985 143.056 18.1837 142.681 17.9582C142.305 17.7234 141.877 17.6059 141.398 17.6059C140.928 17.6059 140.501 17.7234 140.116 17.9582C139.74 18.1837 139.444 18.4985 139.228 18.9025C139.012 19.2971 138.904 19.7481 138.904 20.2554C138.904 20.7534 139.012 21.2043 139.228 21.6083C139.444 22.0029 139.74 22.3177 140.116 22.5526C140.501 22.7781 140.928 22.8908 141.398 22.8908ZM151.054 24.1592C150.274 24.1592 149.578 23.9948 148.968 23.6659C148.366 23.3277 147.892 22.8673 147.544 22.2848C147.206 21.6929 147.037 21.0164 147.037 20.2554C147.037 19.485 147.197 18.8085 147.516 18.226C147.845 17.6341 148.296 17.1737 148.869 16.8449C149.442 16.5067 150.1 16.3375 150.842 16.3375C151.575 16.3375 152.204 16.502 152.731 16.8308C153.257 17.1502 153.656 17.5965 153.929 18.1696C154.21 18.7334 154.351 19.3863 154.351 20.1286C154.351 20.3071 154.29 20.4574 154.168 20.5795C154.046 20.6923 153.891 20.7487 153.703 20.7487H148.024V19.6212H153.661L153.083 20.0158C153.074 19.5461 152.98 19.128 152.801 18.7615C152.623 18.3857 152.369 18.0898 152.04 17.8737C151.711 17.6576 151.312 17.5495 150.842 17.5495C150.307 17.5495 149.846 17.667 149.461 17.9019C149.085 18.1367 148.799 18.4609 148.601 18.8743C148.404 19.2783 148.305 19.7387 148.305 20.2554C148.305 20.7721 148.423 21.2325 148.658 21.6365C148.893 22.0405 149.217 22.36 149.63 22.5948C150.044 22.8297 150.518 22.9472 151.054 22.9472C151.345 22.9472 151.641 22.8955 151.941 22.7921C152.251 22.6794 152.5 22.5526 152.688 22.4116C152.829 22.3083 152.98 22.2566 153.139 22.2566C153.308 22.2472 153.454 22.2942 153.576 22.3975C153.736 22.5385 153.82 22.6935 153.83 22.8626C153.839 23.0317 153.764 23.1774 153.604 23.2995C153.285 23.5532 152.886 23.7599 152.406 23.9196C151.937 24.0793 151.486 24.1592 151.054 24.1592ZM162.696 24.1169C162.489 24.1169 162.315 24.0511 162.174 23.9196C162.043 23.7787 161.977 23.6048 161.977 23.3981V19.9313C161.977 19.3957 161.878 18.9588 161.681 18.6206C161.484 18.2824 161.216 18.0334 160.878 17.8737C160.549 17.7046 160.168 17.62 159.736 17.62C159.342 17.62 158.985 17.6999 158.665 17.8596C158.346 18.0193 158.092 18.2354 157.904 18.5079C157.716 18.7709 157.622 19.0763 157.622 19.4239H156.734C156.734 18.832 156.875 18.3059 157.157 17.8455C157.448 17.3757 157.843 17.0046 158.341 16.7321C158.839 16.4597 159.398 16.3234 160.018 16.3234C160.666 16.3234 161.244 16.4644 161.751 16.7462C162.268 17.0187 162.672 17.4227 162.963 17.9582C163.264 18.4938 163.414 19.1514 163.414 19.9313V23.3981C163.414 23.6048 163.344 23.7787 163.203 23.9196C163.072 24.0511 162.902 24.1169 162.696 24.1169ZM156.903 24.1169C156.697 24.1169 156.523 24.0511 156.382 23.9196C156.251 23.7787 156.185 23.6048 156.185 23.3981V17.1127C156.185 16.8966 156.251 16.7227 156.382 16.5912C156.523 16.4597 156.697 16.3939 156.903 16.3939C157.12 16.3939 157.293 16.4597 157.425 16.5912C157.556 16.7227 157.622 16.8966 157.622 17.1127V23.3981C157.622 23.6048 157.556 23.7787 157.425 23.9196C157.293 24.0511 157.12 24.1169 156.903 24.1169ZM173.556 24.2437C172.955 24.2437 172.382 24.1498 171.837 23.9619C171.292 23.774 170.817 23.5109 170.413 23.1727C170.009 22.8344 169.713 22.4445 169.525 22.0029C169.431 21.8056 169.431 21.6224 169.525 21.4533C169.629 21.2842 169.798 21.1761 170.033 21.1292C170.202 21.0916 170.366 21.1198 170.526 21.2137C170.695 21.2983 170.822 21.4298 170.906 21.6083C171.019 21.8432 171.202 22.0593 171.456 22.2566C171.719 22.4539 172.034 22.6136 172.4 22.7358C172.767 22.8579 173.152 22.919 173.556 22.919C174.007 22.919 174.42 22.8485 174.796 22.7076C175.181 22.5667 175.491 22.3647 175.726 22.1016C175.961 21.8291 176.079 21.4956 176.079 21.101C176.079 20.603 175.881 20.1568 175.487 19.7621C175.101 19.3675 174.463 19.1233 173.57 19.0293C172.405 18.9166 171.489 18.5736 170.822 18.0005C170.155 17.4274 169.821 16.7181 169.821 15.8725C169.821 15.2524 169.995 14.7262 170.343 14.2941C170.69 13.8619 171.16 13.533 171.752 13.3075C172.353 13.0821 173.02 12.9693 173.753 12.9693C174.326 12.9693 174.824 13.0492 175.247 13.2089C175.679 13.3686 176.055 13.5894 176.375 13.8713C176.694 14.1531 176.971 14.4867 177.206 14.8719C177.338 15.0786 177.389 15.2759 177.361 15.4638C177.342 15.6423 177.253 15.7832 177.093 15.8866C176.915 15.9993 176.722 16.0228 176.515 15.957C176.309 15.8913 176.154 15.7691 176.05 15.5906C175.9 15.3181 175.717 15.088 175.501 14.9001C175.285 14.7121 175.031 14.5665 174.74 14.4632C174.448 14.3504 174.106 14.2941 173.711 14.2941C173.016 14.2847 172.433 14.4162 171.963 14.6887C171.494 14.9517 171.259 15.3604 171.259 15.9147C171.259 16.1966 171.329 16.4691 171.47 16.7321C171.62 16.9858 171.888 17.2066 172.273 17.3945C172.668 17.5824 173.232 17.714 173.965 17.7891C175.083 17.9019 175.952 18.2448 176.572 18.8179C177.201 19.3816 177.516 20.1286 177.516 21.0587C177.516 21.5942 177.403 22.0593 177.178 22.4539C176.962 22.8485 176.666 23.1821 176.29 23.4545C175.924 23.7176 175.501 23.9149 175.022 24.0464C174.552 24.178 174.063 24.2437 173.556 24.2437ZM183.118 24.1592C182.357 24.1592 181.685 23.9948 181.102 23.6659C180.52 23.3277 180.06 22.8673 179.721 22.2848C179.392 21.6929 179.228 21.0164 179.228 20.2554C179.228 19.485 179.392 18.8085 179.721 18.226C180.06 17.6341 180.52 17.1737 181.102 16.8449C181.685 16.5067 182.357 16.3375 183.118 16.3375C183.869 16.3375 184.536 16.5067 185.119 16.8449C185.701 17.1737 186.157 17.6341 186.486 18.226C186.824 18.8085 186.993 19.485 186.993 20.2554C186.993 21.0164 186.829 21.6929 186.5 22.2848C186.171 22.8673 185.716 23.3277 185.133 23.6659C184.551 23.9948 183.879 24.1592 183.118 24.1592ZM183.118 22.8908C183.606 22.8908 184.038 22.7781 184.414 22.5526C184.79 22.3271 185.081 22.017 185.288 21.6224C185.504 21.2278 185.612 20.7721 185.612 20.2554C185.612 19.7387 185.504 19.283 185.288 18.8884C185.081 18.4844 184.79 18.1696 184.414 17.9441C184.038 17.7187 183.606 17.6059 183.118 17.6059C182.629 17.6059 182.197 17.7187 181.821 17.9441C181.445 18.1696 181.149 18.4844 180.933 18.8884C180.717 19.283 180.609 19.7387 180.609 20.2554C180.609 20.7721 180.717 21.2278 180.933 21.6224C181.149 22.017 181.445 22.3271 181.821 22.5526C182.197 22.7781 182.629 22.8908 183.118 22.8908ZM192.374 24.1733C191.726 24.1733 191.143 24.037 190.627 23.7646C190.119 23.4827 189.715 23.074 189.415 22.5385C189.123 22.0029 188.978 21.3453 188.978 20.5654V17.0986C188.978 16.8919 189.043 16.7227 189.175 16.5912C189.316 16.4503 189.49 16.3798 189.696 16.3798C189.903 16.3798 190.072 16.4503 190.204 16.5912C190.345 16.7227 190.415 16.8919 190.415 17.0986V20.5654C190.415 21.0916 190.514 21.5285 190.711 21.8761C190.908 22.2143 191.176 22.468 191.514 22.6371C191.853 22.7968 192.233 22.8767 192.656 22.8767C193.06 22.8767 193.417 22.7968 193.727 22.6371C194.046 22.4774 194.3 22.2613 194.488 21.9888C194.676 21.7164 194.77 21.411 194.77 21.0728H195.658C195.658 21.6553 195.512 22.1814 195.221 22.6512C194.939 23.121 194.549 23.4921 194.051 23.7646C193.563 24.037 193.004 24.1733 192.374 24.1733ZM195.489 24.1028C195.282 24.1028 195.108 24.037 194.967 23.9055C194.836 23.7646 194.77 23.5908 194.77 23.3841V17.0986C194.77 16.8825 194.836 16.7087 194.967 16.5771C195.108 16.4456 195.282 16.3798 195.489 16.3798C195.705 16.3798 195.879 16.4456 196.01 16.5771C196.142 16.7087 196.207 16.8825 196.207 17.0986V23.3841C196.207 23.5908 196.142 23.7646 196.01 23.9055C195.879 24.037 195.705 24.1028 195.489 24.1028ZM199.43 19.283C199.43 18.7193 199.566 18.2166 199.838 17.775C200.12 17.3241 200.496 16.967 200.966 16.704C201.436 16.4409 201.952 16.3094 202.516 16.3094C203.08 16.3094 203.498 16.4033 203.77 16.5912C204.052 16.7697 204.16 16.9858 204.094 17.2395C204.066 17.371 204.01 17.4744 203.925 17.5495C203.85 17.6153 203.761 17.6576 203.658 17.6764C203.554 17.6952 203.441 17.6905 203.319 17.6623C202.718 17.5401 202.178 17.5307 201.699 17.6341C201.219 17.7374 200.839 17.9301 200.557 18.2119C200.285 18.4938 200.148 18.8508 200.148 19.283H199.43ZM199.444 24.1028C199.218 24.1028 199.044 24.0464 198.922 23.9337C198.8 23.8115 198.739 23.633 198.739 23.3981V17.0986C198.739 16.8731 198.8 16.6993 198.922 16.5771C199.044 16.455 199.218 16.3939 199.444 16.3939C199.679 16.3939 199.852 16.455 199.965 16.5771C200.087 16.6899 200.148 16.8637 200.148 17.0986V23.3981C200.148 23.6236 200.087 23.7974 199.965 23.9196C199.852 24.0417 199.679 24.1028 199.444 24.1028ZM208.524 24.1592C207.772 24.1592 207.1 23.9901 206.508 23.6518C205.926 23.3042 205.466 22.8391 205.127 22.2566C204.798 21.6647 204.634 20.9976 204.634 20.2554C204.634 19.4944 204.798 18.8179 205.127 18.226C205.456 17.6341 205.907 17.1737 206.48 16.8449C207.053 16.5067 207.711 16.3375 208.453 16.3375C209.008 16.3375 209.515 16.4456 209.975 16.6617C210.436 16.8684 210.849 17.1831 211.215 17.6059C211.347 17.7562 211.394 17.9113 211.356 18.071C211.319 18.2307 211.215 18.3716 211.046 18.4938C210.915 18.5877 210.769 18.6206 210.609 18.5924C210.45 18.5548 210.304 18.4703 210.173 18.3387C209.712 17.8502 209.139 17.6059 208.453 17.6059C207.974 17.6059 207.551 17.7187 207.185 17.9441C206.818 18.1602 206.532 18.4656 206.325 18.8602C206.119 19.2548 206.015 19.7199 206.015 20.2554C206.015 20.7628 206.119 21.2137 206.325 21.6083C206.541 22.0029 206.837 22.3177 207.213 22.5526C207.589 22.7781 208.026 22.8908 208.524 22.8908C208.853 22.8908 209.139 22.8532 209.383 22.7781C209.637 22.6935 209.867 22.5667 210.074 22.3975C210.224 22.2754 210.379 22.2096 210.539 22.2002C210.699 22.1814 210.84 22.2237 210.962 22.3271C211.122 22.4586 211.211 22.6089 211.23 22.7781C211.248 22.9378 211.192 23.0834 211.06 23.2149C210.384 23.8444 209.538 24.1592 208.524 24.1592ZM217.115 24.1592C216.335 24.1592 215.64 23.9948 215.029 23.6659C214.428 23.3277 213.953 22.8673 213.605 22.2848C213.267 21.6929 213.098 21.0164 213.098 20.2554C213.098 19.485 213.258 18.8085 213.577 18.226C213.906 17.6341 214.357 17.1737 214.93 16.8449C215.503 16.5067 216.161 16.3375 216.903 16.3375C217.636 16.3375 218.266 16.502 218.792 16.8308C219.318 17.1502 219.717 17.5965 219.99 18.1696C220.271 18.7334 220.412 19.3863 220.412 20.1286C220.412 20.3071 220.351 20.4574 220.229 20.5795C220.107 20.6923 219.952 20.7487 219.764 20.7487H214.085V19.6212H219.722L219.144 20.0158C219.135 19.5461 219.041 19.128 218.862 18.7615C218.684 18.3857 218.43 18.0898 218.101 17.8737C217.772 17.6576 217.373 17.5495 216.903 17.5495C216.368 17.5495 215.907 17.667 215.522 17.9019C215.146 18.1367 214.86 18.4609 214.662 18.8743C214.465 19.2783 214.366 19.7387 214.366 20.2554C214.366 20.7721 214.484 21.2325 214.719 21.6365C214.954 22.0405 215.278 22.36 215.691 22.5948C216.105 22.8297 216.579 22.9472 217.115 22.9472C217.406 22.9472 217.702 22.8955 218.002 22.7921C218.313 22.6794 218.562 22.5526 218.749 22.4116C218.89 22.3083 219.041 22.2566 219.2 22.2566C219.37 22.2472 219.515 22.2942 219.637 22.3975C219.797 22.5385 219.882 22.6935 219.891 22.8626C219.9 23.0317 219.825 23.1774 219.665 23.2995C219.346 23.5532 218.947 23.7599 218.468 23.9196C217.998 24.0793 217.547 24.1592 217.115 24.1592Z" fill="white"/>
</g>
<defs>
<filter id="filter0_d_1233_14507" x="0.0136083" y="0.154265" width="236.973" height="40.5885" filterUnits="userSpaceOnUse" color-interpolation-filters="sRGB">
<feFlood flood-opacity="0" result="BackgroundImageFix"/>
<feColorMatrix in="SourceAlpha" type="matrix" values="0 0 0 0 0 0 0 0 0 0 0 0 0 0 0 0 0 0 127 0" result="hardAlpha"/>
<feOffset dy="0.845735"/>
<feGaussianBlur stdDeviation="0.845735"/>
<feColorMatrix type="matrix" values="0 0 0 0 0.0627451 0 0 0 0 0.0941176 0 0 0 0 0.156863 0 0 0 0.05 0"/>
<feBlend mode="normal" in2="BackgroundImageFix" result="effect1_dropShadow_1233_14507"/>
<feBlend mode="normal" in="SourceGraphic" in2="effect1_dropShadow_1233_14507" result="shape"/>
</filter>
</defs>
</svg>
