<svg width="87" height="67" viewBox="0 0 87 67" fill="none" xmlns="http://www.w3.org/2000/svg">
<path d="M73.6973 5.61115C67.9813 2.95206 61.947 1.06562 55.7485 0C54.9003 1.54072 54.1329 3.12592 53.4493 4.74896C46.8468 3.738 40.1324 3.738 33.5298 4.74896C32.846 3.12609 32.0785 1.54091 31.2306 0C25.0282 1.07461 18.9899 2.96554 13.2682 5.62505C1.90909 22.7018 -1.17019 39.3545 0.369448 55.7708C7.02163 60.7649 14.4673 64.563 22.3829 67C24.1652 64.5642 25.7423 61.9801 27.0976 59.2751C24.5235 58.2983 22.0391 57.093 19.6731 55.6734C20.2958 55.2145 20.9048 54.7417 21.4933 54.2828C28.3778 57.5726 35.892 59.2783 43.4998 59.2783C51.1077 59.2783 58.6218 57.5726 65.5064 54.2828C66.1017 54.7765 66.7107 55.2493 67.3266 55.6734C64.956 57.0953 62.4671 58.3029 59.8884 59.2821C61.242 61.9858 62.8192 64.5677 64.6032 67C72.5255 64.5728 79.9768 60.7765 86.6302 55.7777C88.4368 36.7401 83.5441 20.2405 73.6973 5.61115ZM29.0478 45.6749C24.7573 45.6749 21.2127 41.7186 21.2127 36.8514C21.2127 31.9842 24.6341 27.9932 29.0341 27.9932C33.434 27.9932 36.9513 31.9842 36.876 36.8514C36.8007 41.7186 33.4203 45.6749 29.0478 45.6749ZM57.9519 45.6749C53.6546 45.6749 50.1237 41.7186 50.1237 36.8514C50.1237 31.9842 53.5451 27.9932 57.9519 27.9932C62.3587 27.9932 65.8485 31.9842 65.7733 36.8514C65.698 41.7186 62.3245 45.6749 57.9519 45.6749Z" fill="#5865F2"/>
</svg>
