<svg width="156" height="42" viewBox="0 0 156 42" fill="none" xmlns="http://www.w3.org/2000/svg">
<g filter="url(#filter0_dd_2374_17246)">
<rect x="3" y="2" width="150" height="36" rx="4" fill="#5865F2" shape-rendering="crispEdges"/>
<path d="M81.1445 16.2144H86.0285C87.2057 16.2144 88.2016 16.398 89.0162 16.7654C89.7662 17.0807 90.403 17.6159 90.8428 18.3003C91.2544 18.9765 91.4654 19.7558 91.4511 20.5474C91.4601 21.3425 91.2409 22.1236 90.8195 22.7979C90.3495 23.5103 89.6773 24.066 88.8892 24.3937C88.0257 24.7873 86.9553 24.9835 85.6779 24.9823H81.1445V16.2144ZM85.6278 22.7514C86.4209 22.7514 87.0304 22.5534 87.4562 22.1575C87.6721 21.9481 87.8407 21.695 87.9509 21.4152C88.061 21.1353 88.1101 20.8352 88.0949 20.5348C88.1081 20.256 88.0646 19.9774 87.9668 19.716C87.8689 19.4546 87.719 19.2158 87.5259 19.0142C87.1443 18.6349 86.57 18.4447 85.8031 18.4435H84.2753V22.7514H85.6278Z" fill="white"/>
<path d="M98.7659 24.7311C98.1215 24.5696 97.5052 24.3121 96.9375 23.9672V21.8883C97.4331 22.2488 97.9911 22.5145 98.5834 22.6719C99.2313 22.8696 99.9044 22.9726 100.582 22.9778C100.816 22.9903 101.049 22.95 101.265 22.8598C101.419 22.7811 101.496 22.6809 101.496 22.5771C101.498 22.5191 101.487 22.4614 101.466 22.4076C101.444 22.3537 101.412 22.3049 101.371 22.264C101.228 22.1541 101.06 22.081 100.882 22.0511L99.3795 21.713C98.5184 21.5126 97.9071 21.2353 97.5458 20.8811C97.3643 20.6981 97.223 20.4795 97.1306 20.2389C97.0382 19.9984 96.9968 19.7413 97.0091 19.4839C97.003 19.0175 97.1729 18.5659 97.4849 18.2191C97.8549 17.8278 98.3213 17.5408 98.8374 17.3872C99.5016 17.1784 100.195 17.0787 100.891 17.092C101.541 17.0859 102.189 17.1616 102.82 17.3174C103.329 17.4381 103.819 17.6322 104.272 17.8935V19.8614C103.847 19.6145 103.389 19.4273 102.913 19.305C102.396 19.1665 101.864 19.0968 101.33 19.0975C100.545 19.0975 100.152 19.2311 100.152 19.4982C100.151 19.5577 100.167 19.6163 100.199 19.6665C100.231 19.7168 100.277 19.7566 100.331 19.7809C100.546 19.872 100.77 19.9369 101 19.9741L102.253 20.1995C103.066 20.3426 103.673 20.5931 104.072 20.9509C104.472 21.3087 104.672 21.8323 104.673 22.5216C104.68 22.8841 104.591 23.242 104.416 23.5596C104.241 23.8772 103.986 24.1436 103.677 24.3321C103.017 24.7746 102.076 24.9953 100.852 24.9941C100.148 24.9952 99.4473 24.9068 98.7659 24.7311Z" fill="white"/>
<path d="M107.633 24.4681C106.963 24.1605 106.399 23.6628 106.01 23.0369C105.647 22.4232 105.461 21.721 105.473 21.0082C105.462 20.2958 105.658 19.5955 106.037 18.992C106.44 18.3759 107.015 17.891 107.69 17.5965C108.511 17.2389 109.4 17.0655 110.295 17.0884C111.547 17.0884 112.586 17.3514 113.413 17.8774V20.1727C113.098 19.9613 112.755 19.7968 112.393 19.6843C111.988 19.5564 111.565 19.4931 111.141 19.4965C110.364 19.4965 109.757 19.6384 109.318 19.9222C109.12 20.0324 108.956 20.1928 108.841 20.3872C108.726 20.5815 108.664 20.803 108.662 21.0289C108.66 21.2549 108.718 21.4772 108.83 21.6735C108.942 21.8697 109.104 22.0327 109.3 22.146C109.726 22.4334 110.343 22.5771 111.153 22.5771C111.571 22.5781 111.987 22.5179 112.388 22.3982C112.753 22.2935 113.104 22.1439 113.433 21.9528V24.1712C112.465 24.7355 111.359 25.0216 110.239 24.9977C109.341 25.0222 108.45 24.841 107.633 24.4681Z" fill="white"/>
<path d="M116.531 24.4684C115.854 24.1593 115.28 23.6626 114.876 23.0372C114.496 22.4249 114.298 21.7167 114.307 20.9959C114.295 20.2838 114.493 19.5838 114.876 18.9833C115.282 18.3738 115.854 17.8933 116.524 17.5986C118.17 16.9307 120.012 16.9307 121.658 17.5986C122.326 17.891 122.895 18.3692 123.299 18.9761C123.679 19.5788 123.875 20.2797 123.862 20.9924C123.871 21.7124 123.676 22.4202 123.299 23.0336C122.9 23.6595 122.328 24.1565 121.653 24.4648C120.844 24.8119 119.972 24.9908 119.092 24.9908C118.211 24.9908 117.34 24.8119 116.531 24.4648V24.4684ZM120.336 22.2465C120.491 22.0867 120.611 21.8971 120.69 21.6891C120.769 21.4811 120.804 21.2592 120.794 21.0371C120.805 20.817 120.77 20.5971 120.691 20.3913C120.612 20.1856 120.491 19.9985 120.336 19.842C120.168 19.6877 119.97 19.5688 119.755 19.4922C119.54 19.4157 119.312 19.3832 119.084 19.3966C118.856 19.3846 118.628 19.4178 118.413 19.4942C118.198 19.5707 118.001 19.6889 117.832 19.842C117.677 19.9989 117.557 20.186 117.478 20.3917C117.4 20.5974 117.365 20.8172 117.375 21.0371C117.365 21.2591 117.401 21.4808 117.479 21.6887C117.557 21.8966 117.677 22.0864 117.832 22.2465C117.999 22.4027 118.196 22.5236 118.411 22.602C118.626 22.6804 118.855 22.7146 119.084 22.7027C119.313 22.716 119.542 22.6824 119.757 22.6039C119.972 22.5255 120.17 22.4038 120.336 22.2465Z" fill="white"/>
<path d="M131.389 17.7887V20.4973C131.015 20.2742 130.584 20.1653 130.149 20.1842C129.482 20.1842 128.967 20.3881 128.609 20.7925C128.251 21.1968 128.072 21.8247 128.072 22.6763V24.9805H125.004V17.6545H128.009V19.9802C128.176 19.1287 128.446 18.5007 128.818 18.0964C128.998 17.8976 129.22 17.7403 129.467 17.6353C129.714 17.5302 129.981 17.4801 130.249 17.4881C130.65 17.4772 131.046 17.5815 131.389 17.7887Z" fill="white"/>
<path d="M141.582 15.7271V24.7437H138.514V23.0978C138.283 23.6837 137.867 24.1785 137.33 24.5075C136.736 24.8454 136.062 25.0138 135.38 24.9942C134.737 25.0091 134.105 24.8329 133.564 24.4879C133.039 24.1471 132.621 23.6653 132.358 23.0978C132.071 22.4714 131.928 21.7885 131.939 21.0995C131.919 20.3851 132.071 19.6763 132.383 19.0332C132.669 18.4441 133.117 17.9479 133.673 17.6019C134.245 17.2555 134.903 17.0776 135.571 17.0885C137.031 17.0885 138.012 17.723 138.514 18.992V15.7271H141.582ZM138.063 22.2033C138.219 22.0494 138.342 21.8646 138.423 21.6607C138.504 21.4568 138.542 21.2382 138.534 21.019C138.54 20.8063 138.502 20.5946 138.421 20.3978C138.34 20.2011 138.218 20.0238 138.063 19.8776C137.712 19.5918 137.273 19.4357 136.821 19.4357C136.368 19.4357 135.929 19.5918 135.578 19.8776C135.424 20.0271 135.303 20.2075 135.223 20.407C135.143 20.6064 135.106 20.8204 135.115 21.0351C135.107 21.2517 135.145 21.4676 135.225 21.6689C135.306 21.8701 135.428 22.0521 135.584 22.2033C135.748 22.3561 135.941 22.4745 136.152 22.5516C136.363 22.6287 136.587 22.663 136.811 22.6523C137.039 22.6649 137.267 22.6317 137.482 22.5546C137.697 22.4774 137.895 22.358 138.063 22.2033Z" fill="white"/>
<path d="M94.0394 18.4345C94.8842 18.4345 95.569 17.8193 95.569 17.0605C95.569 16.3017 94.8842 15.6865 94.0394 15.6865C93.1946 15.6865 92.5098 16.3017 92.5098 17.0605C92.5098 17.8193 93.1946 18.4345 94.0394 18.4345Z" fill="white"/>
<path d="M92.5078 19.3809C92.9924 19.5845 93.5127 19.6894 94.0383 19.6894C94.5639 19.6894 95.0843 19.5845 95.5688 19.3809V25.0198H92.5078V19.3809Z" fill="white"/>
<path d="M73.9301 17.0571C75.9841 17.0571 77.0631 18.3051 77.0631 20.6971V25.0001H73.8781V21.3731C73.8781 20.2291 73.3841 19.6311 72.4481 19.6311C71.4081 19.6311 70.8751 20.2421 70.8751 21.4251V25.0001H67.7031V17.3951H70.8491V19.2931C71.3821 17.7721 72.3441 17.0571 73.9301 17.0571Z" fill="white"/>
<path d="M94.0394 18.4345C94.8842 18.4345 95.569 17.8193 95.569 17.0605C95.569 16.3017 94.8842 15.6865 94.0394 15.6865C93.1946 15.6865 92.5098 16.3017 92.5098 17.0605C92.5098 17.8193 93.1946 18.4345 94.0394 18.4345Z" fill="white"/>
<path d="M64.6331 18.4345C65.4779 18.4345 66.1627 17.8193 66.1627 17.0605C66.1627 16.3017 65.4779 15.6865 64.6331 15.6865C63.7883 15.6865 63.1035 16.3017 63.1035 17.0605C63.1035 17.8193 63.7883 18.4345 64.6331 18.4345Z" fill="white"/>
<path d="M92.5078 19.3809C92.9924 19.5845 93.5127 19.6894 94.0383 19.6894C94.5639 19.6894 95.0843 19.5845 95.5688 19.3809V25.0198H92.5078V19.3809Z" fill="white"/>
<path d="M63.1016 19.3809C63.5861 19.5845 64.1064 19.6894 64.6321 19.6894C65.1577 19.6894 65.678 19.5845 66.1626 19.3809V25.0198H63.1016V19.3809Z" fill="white"/>
<path d="M56.9933 24.9999C53.8343 24.9999 52.0273 23.1539 52.0273 20.8399C52.0273 18.5129 53.8343 16.7969 56.9933 16.7969C60.1523 16.7969 61.9463 18.4999 61.9463 20.8399C61.9463 23.1669 60.1523 24.9999 56.9933 24.9999ZM56.9933 22.6209C58.0983 22.6209 58.7613 21.9189 58.7613 20.8919C58.7613 19.8649 58.0983 19.1889 56.9933 19.1889C55.8753 19.1889 55.2123 19.8649 55.2123 20.8919C55.2123 21.9189 55.8753 22.6209 56.9933 22.6209Z" fill="white"/>
<path d="M47.1275 25.0001C45.9185 25.0001 45.0085 24.6361 44.6055 24.2721V21.8281C44.8915 22.0751 45.3595 22.3611 46.1135 22.3611C47.1275 22.3611 47.7905 21.8151 47.7905 20.7621V15.6011H51.0405V21.4901C51.0405 23.9471 49.4285 25.0001 47.1275 25.0001Z" fill="white"/>
<path d="M32.2677 12.4437C30.7733 11.7596 29.1956 11.2742 27.5751 11C27.3533 11.3964 27.1527 11.8043 26.974 12.2219C25.2478 11.9618 23.4924 11.9618 21.7662 12.2219C21.5874 11.8043 21.3867 11.3965 21.1651 11C19.5435 11.2765 17.9648 11.763 16.4689 12.4473C13.4991 16.8411 12.6941 21.1258 13.0966 25.3497C14.8358 26.6347 16.7824 27.6119 18.8519 28.239C19.3178 27.6122 19.7302 26.9473 20.0845 26.2514C19.4115 26 18.762 25.6899 18.1434 25.3246C18.3062 25.2066 18.4654 25.0849 18.6193 24.9668C20.4192 25.8133 22.3837 26.2522 24.3728 26.2522C26.3618 26.2522 28.3263 25.8133 30.1262 24.9668C30.2819 25.0939 30.4411 25.2155 30.6021 25.3246C29.9823 25.6905 29.3316 26.0012 28.6574 26.2531C29.0113 26.9488 29.4237 27.6131 29.8901 28.239C31.9613 27.6144 33.9094 26.6376 35.6489 25.3515C36.1212 20.4532 34.8421 16.2078 32.2677 12.4437ZM20.5944 22.752C19.4726 22.752 18.5459 21.7341 18.5459 20.4818C18.5459 19.2295 19.4404 18.2026 20.5908 18.2026C21.7411 18.2026 22.6607 19.2295 22.641 20.4818C22.6213 21.7341 21.7375 22.752 20.5944 22.752ZM28.1512 22.752C27.0277 22.752 26.1045 21.7341 26.1045 20.4818C26.1045 19.2295 26.999 18.2026 28.1512 18.2026C29.3033 18.2026 30.2157 19.2295 30.196 20.4818C30.1763 21.7341 29.2943 22.752 28.1512 22.752Z" fill="white"/>
</g>
<defs>
<filter id="filter0_dd_2374_17246" x="0" y="0" width="156" height="42" filterUnits="userSpaceOnUse" color-interpolation-filters="sRGB">
<feFlood flood-opacity="0" result="BackgroundImageFix"/>
<feColorMatrix in="SourceAlpha" type="matrix" values="0 0 0 0 0 0 0 0 0 0 0 0 0 0 0 0 0 0 127 0" result="hardAlpha"/>
<feOffset dy="1"/>
<feGaussianBlur stdDeviation="1.5"/>
<feColorMatrix type="matrix" values="0 0 0 0 0.0627451 0 0 0 0 0.0941176 0 0 0 0 0.156863 0 0 0 0.1 0"/>
<feBlend mode="normal" in2="BackgroundImageFix" result="effect1_dropShadow_2374_17246"/>
<feColorMatrix in="SourceAlpha" type="matrix" values="0 0 0 0 0 0 0 0 0 0 0 0 0 0 0 0 0 0 127 0" result="hardAlpha"/>
<feMorphology radius="1" operator="erode" in="SourceAlpha" result="effect2_dropShadow_2374_17246"/>
<feOffset dy="1"/>
<feGaussianBlur stdDeviation="1"/>
<feComposite in2="hardAlpha" operator="out"/>
<feColorMatrix type="matrix" values="0 0 0 0 0 0 0 0 0 0 0 0 0 0 0 0 0 0 0.1 0"/>
<feBlend mode="normal" in2="effect1_dropShadow_2374_17246" result="effect2_dropShadow_2374_17246"/>
<feBlend mode="normal" in="SourceGraphic" in2="effect2_dropShadow_2374_17246" result="shape"/>
</filter>
</defs>
</svg>
