<svg width="23" height="18" viewBox="0 0 23 18" fill="none" xmlns="http://www.w3.org/2000/svg">
<path d="M19.2677 1.44374C17.7733 0.759559 16.1956 0.274181 14.5751 0C14.3533 0.396425 14.1527 0.804293 13.974 1.2219C12.2478 0.961778 10.4924 0.961778 8.76616 1.2219C8.58736 0.804336 8.38672 0.396473 8.16505 0C6.54346 0.276496 4.96479 0.763026 3.46888 1.44731C0.499118 5.84114 -0.305939 10.1258 0.0965897 14.3497C1.83576 15.6347 3.78239 16.6119 5.85185 17.239C6.31784 16.6122 6.73017 15.9473 7.08448 15.2514C6.41152 15 5.76198 14.6899 5.1434 14.3246C5.3062 14.2066 5.46543 14.0849 5.61928 13.9668C7.41921 14.8133 9.38373 15.2522 11.3728 15.2522C13.3618 15.2522 15.3263 14.8133 17.1262 13.9668C17.2819 14.0939 17.4411 14.2155 17.6021 14.3246C16.9823 14.6905 16.3316 15.0012 15.6574 15.2531C16.0113 15.9488 16.4237 16.6131 16.8901 17.239C18.9613 16.6144 20.9094 15.6376 22.6489 14.3515C23.1212 9.45316 21.8421 5.20782 19.2677 1.44374ZM7.59435 11.752C6.47264 11.752 5.54593 10.7341 5.54593 9.48178C5.54593 8.22947 6.44044 7.20258 7.59078 7.20258C8.74111 7.20258 9.66067 8.22947 9.64099 9.48178C9.62131 10.7341 8.73754 11.752 7.59435 11.752ZM15.1512 11.752C14.0277 11.752 13.1045 10.7341 13.1045 9.48178C13.1045 8.22947 13.999 7.20258 15.1512 7.20258C16.3033 7.20258 17.2157 8.22947 17.196 9.48178C17.1763 10.7341 16.2943 11.752 15.1512 11.752Z" fill="white"/>
</svg>
