<svg width="194" height="165" viewBox="0 0 194 165" fill="none" xmlns="http://www.w3.org/2000/svg">
<path d="M192.365 65.702L180.804 57.1869L192.864 40.8131C193.472 39.9876 193.296 38.8288 192.471 38.2207C191.645 37.6126 190.487 37.7884 189.878 38.614L177.818 54.9877L159.784 41.7048L171.845 25.3311C172.453 24.5055 172.277 23.3467 171.451 22.7386C170.626 22.1306 169.467 22.3064 168.859 23.1319L156.799 39.5056L145.238 30.9905L133.75 46.5879L137.954 49.6843L130.586 59.6865C123.095 69.8574 124.837 84.0127 134.25 92.1296L100.023 138.598C92.3062 149.075 77.5034 151.32 67.025 143.603C56.5481 135.886 54.3024 121.083 62.0192 110.606L110.789 44.393C119.719 32.2695 117.12 15.1412 104.995 6.21042C92.8701 -2.72036 75.7463 -0.118639 66.8166 12.0049L0.630751 101.863L3.61648 104.062L69.8023 14.2041C77.5192 3.72715 92.322 1.48149 102.799 9.19834C113.277 16.9163 115.523 31.7191 107.806 42.196L59.0365 108.409C50.1068 120.533 52.7038 137.66 64.8288 146.59C76.9538 155.521 94.081 152.924 103.012 140.799L137.238 94.331C147.78 100.912 161.817 98.3783 169.308 88.2074L176.675 78.2052L180.879 81.3016L192.368 65.7042L192.365 65.702ZM166.32 86.006C159.669 95.0349 146.914 96.9698 137.886 90.3196C128.857 83.6693 126.922 70.9145 133.572 61.8857L140.939 51.8835L173.687 76.0039L166.32 86.006ZM180.09 76.1146L138.935 45.8014L146.025 36.1754L187.18 66.4886L180.09 76.1146ZM97.2985 16.6631L95.0993 19.6488C90.3848 16.1763 83.7234 17.1856 80.2498 21.9015L62.7731 45.6291L59.7873 43.4299L77.2652 19.7009C81.9509 13.3424 90.9389 11.9788 97.2985 16.6631ZM118.675 135.16L121.661 137.359L113.459 148.494C106.54 157.887 95.8807 163.809 84.2101 164.744L83.9133 161.048C94.5122 160.199 104.191 154.821 110.472 146.294L118.675 135.16ZM161.737 79.9477L140.717 64.4656L142.916 61.4799L163.936 76.962L161.737 79.9477ZM141.634 72.0494L154.222 81.3211L152.023 84.3068L139.435 75.0352L141.634 72.0494ZM55.3916 49.401L58.3774 51.6001L48.2062 65.4091L45.2205 63.21L55.3916 49.401Z" fill="#3A3A3A"/>
</svg>
