<svg width="30" height="27" viewBox="0 0 30 27" fill="none" xmlns="http://www.w3.org/2000/svg">
<path d="M15.5 13L6.95123 20.3275C5.89869 21.2297 5.83697 22.837 6.81721 23.8172C7.74659 24.7466 9.25341 24.7466 10.1828 23.8172L19 15L21.0877 14.768C22.4945 14.6117 23.6007 13.4933 23.7415 12.0849L23.9513 9.98663C23.9692 9.80847 23.7618 9.69846 23.6243 9.81309L21.1403 11.8831C21.0608 11.9493 20.944 11.944 20.8709 11.8709L19.1291 10.1291C19.056 10.056 19.0507 9.93916 19.1169 9.85969L21.2266 7.32804C21.3352 7.19777 21.2426 7 21.073 7H20.6007C18.0002 7 15.8339 8.99331 15.6179 11.5848L15.5 13Z" fill="white" stroke="black"/>
<path d="M17.5 17.5L20.7154 21.1173C21.2208 21.6859 21.5 22.4202 21.5 23.181V23.181C21.5 24.25 20.7724 25.1819 19.7353 25.4412L19.5425 25.4894C18.2886 25.8029 16.9647 25.3883 16.1136 24.4156L14 22M9.86461 15.5442L11.2204 13.8495C11.3796 13.6505 11.3637 13.3637 11.1836 13.1836L6.35355 8.35355C6.15829 8.15829 5.84171 8.15829 5.64645 8.35355L4.33852 9.66148C4.14923 9.85077 4.1426 10.1556 4.32349 10.3529L9.1056 15.5697C9.31287 15.7959 9.673 15.7838 9.86461 15.5442Z" stroke="black"/>
</svg>
