<svg width="86" height="89" viewBox="0 0 86 89" fill="none" xmlns="http://www.w3.org/2000/svg">
<g id="Group">
<path id="Vector" fill-rule="evenodd" clip-rule="evenodd" d="M58.7117 13.5476C58.4812 13.5476 58.2508 13.4734 58.0555 13.3171L45.1805 2.91115C43.8328 1.82135 41.9499 1.82135 40.6023 2.91115L27.7274 13.3171C27.2781 13.6804 26.6219 13.6101 26.2586 13.1609C25.8992 12.7117 25.9656 12.0554 26.4148 11.6921L39.2898 1.2861C41.4109 -0.4287 44.3718 -0.4287 46.4929 1.2861L59.3679 11.6921C59.8171 12.0554 59.8835 12.7116 59.5241 13.1609C59.3171 13.4148 59.0164 13.5476 58.7117 13.5476ZM78.2347 88.2776H7.5547C3.3906 88.2776 0 85.2346 0 81.4964V33.5474C0 33.231 0.14453 32.9341 0.39062 32.7349L15.1056 20.8399C15.5548 20.4766 16.2111 20.5469 16.5744 20.9962C16.9338 21.4454 16.8674 22.1017 16.4182 22.465L2.09417 34.047V81.496C2.09417 84.0858 4.54727 86.1913 7.55897 86.1913H78.239C81.2546 86.1913 83.7038 84.0858 83.7038 81.496V34.047L69.3798 22.465C68.9305 22.1017 68.8602 21.4455 69.2235 20.9962C69.5868 20.5469 70.243 20.4766 70.6923 20.8399L85.4073 32.7349C85.6534 32.9341 85.794 33.231 85.794 33.5474V81.4964C85.794 85.2347 82.4073 88.2776 78.2393 88.2776H78.2347Z" fill="#71717A"/>
<path id="Vector_2" fill-rule="evenodd" clip-rule="evenodd" d="M82.2867 87.0286C82.0523 87.0286 81.818 86.9505 81.6266 86.7903L42.8966 55.0053L4.16955 86.7903C3.72424 87.1575 3.06405 87.0911 2.69685 86.6458C2.33357 86.2005 2.39607 85.5403 2.84138 85.177L42.2324 52.849C42.6191 52.5326 43.1738 52.5326 43.5566 52.849L82.9476 85.177C83.3929 85.5442 83.4554 86.2004 83.0921 86.6458C82.8851 86.8958 82.5882 87.0286 82.2835 87.0286H82.2867Z" fill="#71717A"/>
<path id="Vector_3" fill-rule="evenodd" clip-rule="evenodd" d="M32.8607 62.9346C32.6107 62.9346 32.3646 62.8487 32.1654 62.669L0.353364 34.325C-0.0763259 33.9422 -0.115385 33.282 0.267428 32.8523C0.650238 32.4226 1.31043 32.3835 1.74403 32.7664L33.556 61.1104C33.9857 61.4932 34.0248 62.1534 33.642 62.587C33.4388 62.8174 33.1498 62.9385 32.8646 62.9346L32.8607 62.9346ZM52.9307 62.9346C52.6455 62.9346 52.3565 62.8174 52.1533 62.587C51.7666 62.1573 51.8057 61.4972 52.2393 61.1104L84.0513 32.7624C84.481 32.3795 85.1411 32.4186 85.524 32.8483C85.9107 33.278 85.8716 33.9381 85.438 34.3249L53.629 62.6689C53.4298 62.8447 53.1798 62.9345 52.9337 62.9345L52.9307 62.9346Z" fill="#71717A"/>
<path id="Vector_4" fill-rule="evenodd" clip-rule="evenodd" d="M70.0317 47.6996C69.4536 47.6996 68.9887 47.2309 68.9887 46.6566V17.1876C68.9887 15.1798 67.0746 13.547 64.7192 13.547H21.0742C18.7226 13.547 16.8047 15.1798 16.8047 17.1876V46.6566C16.8047 47.2347 16.3399 47.6996 15.7578 47.6996C15.1797 47.6996 14.7148 47.2309 14.7148 46.6566V17.1876C14.7148 14.0274 17.5664 11.4571 21.0742 11.4571H64.7192C68.227 11.4571 71.0786 14.0274 71.0786 17.1876V46.6566C71.0786 47.2347 70.6099 47.6996 70.0356 47.6996H70.0317Z" fill="#71717A"/>
<path id="Vector_5" fill-rule="evenodd" clip-rule="evenodd" d="M57.7326 30.0086H28.0606C27.4825 30.0086 27.0176 29.5399 27.0176 28.9656C27.0176 28.3875 27.4863 27.9226 28.0606 27.9226H57.7326C58.3107 27.9226 58.7756 28.3914 58.7756 28.9656C58.7756 29.5437 58.3107 30.0086 57.7326 30.0086Z" fill="#71717A"/>
<path id="Vector_6" fill-rule="evenodd" clip-rule="evenodd" d="M57.7326 46.4736H28.0606C27.4825 46.4736 27.0176 46.0049 27.0176 45.4306C27.0176 44.8525 27.4863 44.3876 28.0606 44.3876H57.7326C58.3107 44.3876 58.7756 44.8564 58.7756 45.4306C58.7756 46.0087 58.3107 46.4736 57.7326 46.4736Z" fill="#71717A"/>
</g>
</svg>
