<svg width="24" height="25" viewBox="0 0 24 25" fill="none" xmlns="http://www.w3.org/2000/svg">
<path fill-rule="evenodd" clip-rule="evenodd" d="M9.54222 23.9402C9.76726 23.9387 9.9254 23.7597 9.9254 23.594V21.1157C9.9254 20.5632 10.544 20.2677 10.9801 20.5412C11.1619 20.6431 11.3659 20.6977 11.5735 20.6977C12.2033 20.6977 12.6894 20.2186 12.695 19.6521C12.6894 19.0931 12.2044 18.6131 11.5735 18.6131C11.3572 18.6131 11.1571 18.6654 10.9919 18.7663C10.5584 19.04 9.92537 18.7594 9.92537 18.195V15.7167C9.92537 15.5465 9.76962 15.3726 9.54243 15.3726H6.99824C6.47643 15.3726 6.10064 14.7922 6.42009 14.3202C6.52239 14.1571 6.57804 13.9693 6.57804 13.7794C6.57804 13.2171 6.09646 12.7283 5.46877 12.7219C4.84267 12.7275 4.35995 13.216 4.35995 13.7794C4.35995 13.9718 4.41582 14.158 4.52275 14.3174L4.52361 14.3187C4.82785 14.7762 4.48699 15.3726 3.94654 15.3726H1.39554C1.17281 15.3726 1.0194 15.5422 1.0194 15.7167V17.2675C1.10674 17.2588 1.19401 17.2545 1.28 17.2545C2.63985 17.2545 3.78903 18.3046 3.78903 19.6532C3.78903 21.0003 2.64143 22.0584 1.28 22.0584C1.19401 22.0584 1.10674 22.0541 1.0194 22.0453V23.5961C1.0194 23.7662 1.17504 23.9402 1.39554 23.9402H2.99235C2.98432 23.8611 2.98033 23.7815 2.98033 23.7013C2.98033 22.367 4.10215 21.2906 5.4701 21.2906C6.83805 21.2906 7.95988 22.3669 7.95988 23.7013C7.95988 23.7815 7.95592 23.8612 7.94793 23.9402H9.54222ZM14.811 14.319C15.1293 14.7866 14.7655 15.3724 14.2323 15.3724H11.6881C11.4609 15.3724 11.3052 15.5462 11.3052 15.7165V17.2679C11.3945 17.2587 11.4835 17.2542 11.5714 17.2542C12.925 17.2542 14.0805 18.3037 14.0805 19.6529C14.0805 21.0008 12.9253 22.0581 11.5714 22.0581H11.5676C11.4817 22.0572 11.3942 22.0522 11.3063 22.0429V23.5937C11.3063 23.7596 11.4643 23.9378 11.6893 23.9378H13.2861C13.2781 23.8587 13.2741 23.7791 13.2741 23.6989C13.2741 22.3646 14.3959 21.2882 15.7638 21.2882C17.1318 21.2882 18.2536 22.3645 18.2536 23.6989C18.2536 23.7791 18.2496 23.8588 18.2417 23.9378H19.8373C20.0622 23.9378 20.2202 23.7596 20.2202 23.5937V21.1154C20.2202 20.5609 20.8343 20.2694 21.2734 20.5401C21.4556 20.6425 21.6602 20.6974 21.8683 20.6974C22.4966 20.6974 22.9832 20.2187 22.9898 19.6516C22.9841 19.0927 22.4991 18.6128 21.8683 18.6128C21.6536 18.6128 21.4519 18.6644 21.2774 18.7676C20.838 19.0425 20.2202 18.751 20.2202 18.1948V15.7165C20.2202 15.5462 20.0645 15.3724 19.8373 15.3724H17.2863C16.7479 15.3724 16.4033 14.7793 16.7076 14.3192L16.7089 14.3171C16.8159 14.1578 16.8717 13.9716 16.8717 13.7791C16.8717 13.2171 16.3892 12.7281 15.7625 12.7217C15.1354 12.7272 14.6536 13.2155 14.6536 13.7791C14.6536 13.9701 14.7087 14.1574 14.811 14.319ZM13.1028 12.4092L10.8474 13.6266C10.6765 13.7178 10.4934 13.7708 10.3091 13.7885C10.0449 13.8138 9.77848 13.7665 9.54243 13.6551C9.53971 13.6538 9.537 13.6525 9.53429 13.6512C9.29457 13.5363 9.08679 13.3549 8.94551 13.116L7.69832 10.9879C7.57032 10.7721 7.75044 10.5141 8.00078 10.526C8.2772 10.539 8.54678 10.4772 8.79146 10.3482C9.50512 9.9612 9.76226 9.1004 9.36353 8.41741C8.95798 7.73549 8.05289 7.50132 7.33926 7.88293C7.10135 8.01196 6.90199 8.20167 6.76719 8.43584C6.65166 8.65158 6.32996 8.65808 6.20195 8.44234L4.94911 6.3142C4.57642 5.68106 4.8143 4.86364 5.48263 4.50046L7.30072 3.52259C7.13987 3.38165 7.01186 3.21578 6.90198 3.0369C6.88133 3.00158 6.86188 2.96591 6.84362 2.92994C6.3564 1.9697 6.72135 0.79109 7.70511 0.257107C8.69625 -0.270471 9.93141 0.0415485 10.5369 0.939936C10.5598 0.97385 10.5817 1.0086 10.6027 1.04417C10.7058 1.22196 10.7828 1.41927 10.8282 1.622L12.6462 0.637608C13.3146 0.28092 14.1687 0.508582 14.5482 1.14822L15.5506 2.85789C15.699 2.71045 15.8724 2.58144 16.0581 2.47628C16.09 2.45922 16.1221 2.44302 16.1544 2.42768C17.1606 1.95048 18.4029 2.29751 18.9627 3.24491C19.5166 4.19712 19.1847 5.39229 18.2353 5.9641C18.2043 5.98278 18.1726 6.00079 18.1403 6.0181C17.9545 6.11567 17.7484 6.19048 17.5365 6.23276L18.5445 7.94583C18.9161 8.58546 18.6793 9.40289 18.011 9.76607L15.7556 10.977C15.7452 10.9827 15.7347 10.9878 15.7241 10.9922C15.6498 11.0232 15.5726 11.0243 15.5037 11.0033C15.37 10.9625 15.2678 10.8383 15.2799 10.6876C15.2867 10.423 15.2221 10.165 15.0873 9.93084C14.6897 9.24784 13.7835 9.00174 13.0699 9.38335C12.363 9.7704 12.1127 10.6377 12.5171 11.3207C12.6519 11.5484 12.8445 11.7392 13.0892 11.8682C13.3146 11.9787 13.327 12.2866 13.1028 12.4092ZM11.6879 14.3897C11.3946 14.3897 11.1214 14.4757 10.8957 14.6243C10.7911 14.6931 10.6966 14.7755 10.6152 14.8689C10.5335 14.7752 10.4388 14.6926 10.3339 14.6236C10.2831 14.5903 10.23 14.56 10.1747 14.5332C9.98474 14.4412 9.76992 14.3897 9.54243 14.3897H7.49326C7.55783 14.1924 7.58955 13.9832 7.58955 13.7804C7.58955 13.7371 7.58814 13.694 7.58538 13.6512C7.51637 12.5854 6.5995 11.7325 5.46901 11.7325C4.33851 11.7325 3.42164 12.5854 3.35263 13.6512C3.34987 13.694 3.34846 13.7371 3.34846 13.7804C3.34846 13.9832 3.38017 14.1924 3.44474 14.3897H1.39444C0.629825 14.3897 0 14.986 0 15.7178V18.1961C0 18.4422 0.288864 18.5896 0.500692 18.4541C0.732915 18.3121 1.00251 18.2449 1.2789 18.2449C2.10128 18.2449 2.76282 18.8726 2.76962 19.6531C2.76283 20.4402 2.10128 21.0679 1.2789 21.0679C1.00252 21.0679 0.731779 20.9942 0.500692 20.8587C0.288853 20.7232 0 20.8706 0 21.1167V23.595C0 24.3268 0.629825 24.9231 1.39444 24.9231H3.94544C4.20258 24.9231 4.34984 24.6455 4.21504 24.4493C4.06665 24.2217 3.98962 23.9636 3.98962 23.6991C3.98962 22.9175 4.6523 22.2789 5.46789 22.2724C6.28464 22.2789 6.94617 22.9175 6.94617 23.6991C6.94617 23.9636 6.86801 24.2217 6.72755 24.4493C6.58594 24.6466 6.74001 24.9231 6.99715 24.9231H9.54133C9.83498 24.9231 10.1075 24.8373 10.3328 24.6892C10.4377 24.6202 10.5323 24.5376 10.6141 24.4439C10.6958 24.5376 10.7904 24.6201 10.8953 24.6892C11.1206 24.8373 11.3931 24.9231 11.6868 24.9231H14.231C14.4949 24.9231 14.6433 24.6455 14.5017 24.4493C14.3601 24.2217 14.2831 23.9636 14.2831 23.6991C14.2831 22.9175 14.9446 22.2789 15.7613 22.2724C16.5769 22.2789 17.2396 22.9175 17.2396 23.6991C17.2396 23.9636 17.1626 24.2217 17.0142 24.4493C16.8794 24.6466 17.0278 24.9231 17.2849 24.9231H19.8359C20.6006 24.9231 21.2304 24.3268 21.2304 23.595V21.5959C21.4365 21.6577 21.6484 21.6881 21.867 21.6881C21.9011 21.6881 21.9351 21.6873 21.9688 21.6857C23.0915 21.6347 24 20.7445 24 19.6521C24 18.5596 23.0915 17.6756 21.9688 17.6249C21.9351 17.6234 21.9011 17.6226 21.867 17.6226C21.6484 17.6226 21.4365 17.653 21.2304 17.7148V15.7156C21.2304 14.9838 20.6006 14.3876 19.8359 14.3876H17.7868C17.8513 14.1903 17.8831 13.981 17.8831 13.7783C17.8831 13.7349 17.8816 13.6919 17.8789 13.6491C17.8111 12.6021 16.9252 11.7606 15.8223 11.7312C15.8024 11.7307 15.7825 11.7304 15.7625 11.7304C15.6691 11.7304 15.5771 11.7362 15.4869 11.7475C14.4862 11.8728 13.7094 12.6714 13.6461 13.6492C13.6434 13.6919 13.642 13.735 13.642 13.7783C13.642 13.981 13.6737 14.1903 13.7383 14.3876L11.6879 14.3897ZM9.82922 12.625C9.92413 12.7857 10.1664 12.8584 10.3517 12.7584L11.7596 12.0011C11.7144 11.9382 11.6726 11.8733 11.6345 11.8067C10.9569 10.6461 11.3727 9.16728 12.5825 8.51696C13.7738 7.87793 15.2922 8.28938 15.9728 9.44144L15.9758 9.44639C16.017 9.51865 16.0547 9.59336 16.0886 9.66979L17.5245 8.89751C17.7059 8.80141 17.7567 8.59749 17.6636 8.44193L17.6619 8.43912L16.4165 6.3139C16.4162 6.3133 16.4158 6.3127 16.4154 6.3121C16.1182 5.81237 16.5456 5.26088 17.0556 5.29378C17.263 5.3029 17.4633 5.25656 17.6465 5.15514L17.6505 5.15288C18.1797 4.86845 18.3622 4.23602 18.0785 3.73344C17.7797 3.23797 17.0961 3.051 16.5482 3.34338C16.3707 3.43985 16.2237 3.58134 16.1226 3.75285C15.8683 4.21451 15.1832 4.22818 14.9164 3.76286L13.6633 1.6344C13.5676 1.46882 13.3299 1.39938 13.148 1.50092L13.1428 1.5038L10.889 2.715C10.8887 2.71516 10.8884 2.71533 10.8881 2.71549C10.4343 2.96121 9.82174 2.63621 9.86158 2.07814C9.87049 1.88969 9.82479 1.70609 9.7216 1.53543L9.71921 1.53148C9.42656 1.03356 8.74692 0.836504 8.19418 1.12254C7.66864 1.41256 7.49535 2.04868 7.78565 2.54711C7.88489 2.7143 8.03259 2.85666 8.2163 2.954C8.48896 3.09383 8.6178 3.38723 8.57804 3.65991L8.58806 3.66869L8.5756 3.67538C8.54355 3.86418 8.42995 4.04139 8.22649 4.14861L5.97049 5.36644C5.78892 5.46262 5.73861 5.66742 5.83109 5.82158L5.83299 5.82475L6.6167 7.16134C6.69183 7.11017 6.76989 7.06302 6.85024 7.02052C8.03787 6.37787 9.56223 6.76384 10.2467 7.92014L10.2481 7.92254C10.9296 9.09396 10.4778 10.5631 9.28369 11.2054C9.2111 11.2457 9.13654 11.282 9.06067 11.3143L9.82922 12.625C9.82927 12.6251 9.82916 12.6249 9.82922 12.625Z" fill="black"/>
</svg>
