<svg width="26" height="27" viewBox="0 0 26 27" fill="none" xmlns="http://www.w3.org/2000/svg">
<mask id="path-1-inside-1_2146_17256" fill="white">
<path d="M14.7788 14.9265C14.7788 15.1461 14.8132 15.3728 14.8831 15.5865L12.6619 15.5889C12.1968 15.5889 11.7783 15.7885 11.4998 16.108C11.2212 15.7885 10.804 15.5889 10.3376 15.5889H8.1177C8.18765 15.3751 8.22201 15.1484 8.22201 14.9288C8.22201 13.7097 7.19856 12.7102 5.92476 12.7102C4.65095 12.7102 3.6275 13.7097 3.6275 14.9288C3.6275 15.1484 3.66185 15.3751 3.7318 15.5889H1.51064C0.68231 15.5889 0 16.2348 0 17.0276V19.7124C0 19.979 0.312936 20.1387 0.542417 19.9919C0.793992 19.8381 1.08605 19.7653 1.38548 19.7653C2.27639 19.7653 2.99306 20.4453 3.00042 21.2909C2.99307 22.1436 2.27639 22.8236 1.38548 22.8236C1.08606 22.8236 0.79276 22.7437 0.542417 22.5969C0.312924 22.4501 0 22.6098 0 22.8764V25.5613C0 26.3541 0.68231 27 1.51064 27H4.27423C4.5528 27 4.71233 26.6993 4.56629 26.4868C4.40553 26.2401 4.32209 25.9606 4.32209 25.674C4.32209 24.8273 5.03999 24.1355 5.92355 24.1285C6.80836 24.1355 7.52502 24.8273 7.52502 25.674C7.52502 25.9606 7.44035 26.2401 7.28818 26.4868C7.13477 26.7005 7.30167 27 7.58024 27H10.3364C10.8028 27 11.22 26.8003 11.4986 26.4809C11.7771 26.8003 12.1943 27 12.6607 27H15.4169C15.7028 27 15.8636 26.6993 15.7102 26.4868C15.5568 26.2401 15.4733 25.9606 15.4733 25.674C15.4733 24.8273 16.19 24.1355 17.0748 24.1285C17.9584 24.1355 18.6763 24.8273 18.6763 25.674C18.6763 25.9606 18.5928 26.2401 18.4321 26.4868C18.286 26.7005 18.4468 27 18.7254 27H21.4889C22.3173 27 22.9996 26.354 22.9996 25.5613V23.3956C23.2229 23.4625 23.4524 23.4954 23.6892 23.4954C24.9557 23.4954 26 22.5089 26 21.2898C26 20.0707 24.9557 19.0912 23.6892 19.0912C23.4524 19.0912 23.2229 19.124 22.9996 19.191V17.0253C22.9996 16.2325 22.3173 15.5865 21.4889 15.5865H19.269C19.3389 15.3728 19.3733 15.1461 19.3733 14.9265C19.3733 13.7074 18.3499 12.7079 17.076 12.7079C15.8022 12.7079 14.7788 13.7074 14.7788 14.9265Z"/>
<path d="M19.652 6.51961C19.4507 6.62531 19.2274 6.70635 18.9979 6.75215L20.0899 8.60798C20.4924 9.30092 20.2359 10.1865 19.5119 10.5799L17.0686 11.8918C16.8244 12.0245 16.5324 11.8378 16.5532 11.5782C16.5606 11.2916 16.4906 11.0121 16.3446 10.7584C15.9139 10.0185 14.9321 9.75189 14.159 10.1653C13.3933 10.5846 13.1221 11.5242 13.5602 12.2641C13.7062 12.5107 13.9149 12.7174 14.1799 12.8572C14.4241 12.977 14.4376 13.3105 14.1946 13.4432L11.7514 14.7622C11.0273 15.1486 10.1008 14.9019 9.69097 14.209L8.33985 11.9035C8.20118 11.6698 8.39631 11.3903 8.66751 11.4032C8.96696 11.4173 9.25901 11.3503 9.52408 11.2106C10.2972 10.7913 10.5758 9.85876 10.1438 9.11886C9.70447 8.38012 8.72397 8.12643 7.95086 8.53985C7.69313 8.67962 7.47716 8.88514 7.33113 9.13883C7.20597 9.37255 6.85745 9.37959 6.71878 9.14587L5.36154 6.84039C4.95778 6.15448 5.21549 5.26894 5.93952 4.87549L7.90911 3.81614C7.73485 3.66346 7.59619 3.48376 7.47715 3.28998C6.85742 2.2305 7.24153 0.878687 8.3472 0.278533C9.46148 -0.314586 10.8604 0.0718269 11.4863 1.13118C11.598 1.32379 11.6814 1.53754 11.7305 1.75716L13.7001 0.690742C14.4241 0.30433 15.3494 0.550964 15.7605 1.2439L16.8465 3.09605C17.0073 2.93632 17.195 2.79656 17.3963 2.68264C18.5033 2.08952 19.917 2.45597 20.5429 3.51532C21.1626 4.58057 20.7589 5.92649 19.652 6.51961Z"/>
</mask>
<path d="M14.7788 14.9265C14.7788 15.1461 14.8132 15.3728 14.8831 15.5865L12.6619 15.5889C12.1968 15.5889 11.7783 15.7885 11.4998 16.108C11.2212 15.7885 10.804 15.5889 10.3376 15.5889H8.1177C8.18765 15.3751 8.22201 15.1484 8.22201 14.9288C8.22201 13.7097 7.19856 12.7102 5.92476 12.7102C4.65095 12.7102 3.6275 13.7097 3.6275 14.9288C3.6275 15.1484 3.66185 15.3751 3.7318 15.5889H1.51064C0.68231 15.5889 0 16.2348 0 17.0276V19.7124C0 19.979 0.312936 20.1387 0.542417 19.9919C0.793992 19.8381 1.08605 19.7653 1.38548 19.7653C2.27639 19.7653 2.99306 20.4453 3.00042 21.2909C2.99307 22.1436 2.27639 22.8236 1.38548 22.8236C1.08606 22.8236 0.79276 22.7437 0.542417 22.5969C0.312924 22.4501 0 22.6098 0 22.8764V25.5613C0 26.3541 0.68231 27 1.51064 27H4.27423C4.5528 27 4.71233 26.6993 4.56629 26.4868C4.40553 26.2401 4.32209 25.9606 4.32209 25.674C4.32209 24.8273 5.03999 24.1355 5.92355 24.1285C6.80836 24.1355 7.52502 24.8273 7.52502 25.674C7.52502 25.9606 7.44035 26.2401 7.28818 26.4868C7.13477 26.7005 7.30167 27 7.58024 27H10.3364C10.8028 27 11.22 26.8003 11.4986 26.4809C11.7771 26.8003 12.1943 27 12.6607 27H15.4169C15.7028 27 15.8636 26.6993 15.7102 26.4868C15.5568 26.2401 15.4733 25.9606 15.4733 25.674C15.4733 24.8273 16.19 24.1355 17.0748 24.1285C17.9584 24.1355 18.6763 24.8273 18.6763 25.674C18.6763 25.9606 18.5928 26.2401 18.4321 26.4868C18.286 26.7005 18.4468 27 18.7254 27H21.4889C22.3173 27 22.9996 26.354 22.9996 25.5613V23.3956C23.2229 23.4625 23.4524 23.4954 23.6892 23.4954C24.9557 23.4954 26 22.5089 26 21.2898C26 20.0707 24.9557 19.0912 23.6892 19.0912C23.4524 19.0912 23.2229 19.124 22.9996 19.191V17.0253C22.9996 16.2325 22.3173 15.5865 21.4889 15.5865H19.269C19.3389 15.3728 19.3733 15.1461 19.3733 14.9265C19.3733 13.7074 18.3499 12.7079 17.076 12.7079C15.8022 12.7079 14.7788 13.7074 14.7788 14.9265Z" stroke="black" stroke-width="1.6" mask="url(#path-1-inside-1_2146_17256)"/>
<path d="M19.652 6.51961C19.4507 6.62531 19.2274 6.70635 18.9979 6.75215L20.0899 8.60798C20.4924 9.30092 20.2359 10.1865 19.5119 10.5799L17.0686 11.8918C16.8244 12.0245 16.5324 11.8378 16.5532 11.5782C16.5606 11.2916 16.4906 11.0121 16.3446 10.7584C15.9139 10.0185 14.9321 9.75189 14.159 10.1653C13.3933 10.5846 13.1221 11.5242 13.5602 12.2641C13.7062 12.5107 13.9149 12.7174 14.1799 12.8572C14.4241 12.977 14.4376 13.3105 14.1946 13.4432L11.7514 14.7622C11.0273 15.1486 10.1008 14.9019 9.69097 14.209L8.33985 11.9035C8.20118 11.6698 8.39631 11.3903 8.66751 11.4032C8.96696 11.4173 9.25901 11.3503 9.52408 11.2106C10.2972 10.7913 10.5758 9.85876 10.1438 9.11886C9.70447 8.38012 8.72397 8.12643 7.95086 8.53985C7.69313 8.67962 7.47716 8.88514 7.33113 9.13883C7.20597 9.37255 6.85745 9.37959 6.71878 9.14587L5.36154 6.84039C4.95778 6.15448 5.21549 5.26894 5.93952 4.87549L7.90911 3.81614C7.73485 3.66346 7.59619 3.48376 7.47715 3.28998C6.85742 2.2305 7.24153 0.878687 8.3472 0.278533C9.46148 -0.314586 10.8604 0.0718269 11.4863 1.13118C11.598 1.32379 11.6814 1.53754 11.7305 1.75716L13.7001 0.690742C14.4241 0.30433 15.3494 0.550964 15.7605 1.2439L16.8465 3.09605C17.0073 2.93632 17.195 2.79656 17.3963 2.68264C18.5033 2.08952 19.917 2.45597 20.5429 3.51532C21.1626 4.58057 20.7589 5.92649 19.652 6.51961Z" stroke="black" stroke-width="1.6" mask="url(#path-1-inside-1_2146_17256)"/>
<path d="M19.7926 6.5437C19.5871 6.6498 19.3589 6.73114 19.1245 6.77711L20.24 8.63979C20.6512 9.33529 20.3892 10.2241 19.6496 10.619L17.1537 11.9357C16.9043 12.0689 16.6059 11.8815 16.6273 11.621C16.6348 11.3333 16.5633 11.0528 16.4142 10.7982C15.9742 10.0555 14.9713 9.78793 14.1816 10.2029C13.3994 10.6237 13.1224 11.5668 13.5699 12.3094C13.7191 12.557 13.9321 12.7644 14.2029 12.9047C14.4524 13.0249 14.4662 13.3597 14.218 13.4929L11.7222 14.8167C10.9825 15.2046 10.0361 14.957 9.61743 14.2615L8.23726 11.9475C8.09561 11.7129 8.29493 11.4324 8.57197 11.4453C8.87786 11.4595 9.17619 11.3923 9.44696 11.252C10.2367 10.8312 10.5213 9.8952 10.08 9.15256C9.63123 8.41109 8.62964 8.15647 7.83991 8.57141C7.57664 8.7117 7.35602 8.91798 7.20685 9.1726C7.07899 9.40718 6.72298 9.41425 6.58133 9.17967L5.1949 6.86567C4.78247 6.17723 5.04571 5.28841 5.78531 4.89351L7.79726 3.83024C7.61925 3.677 7.4776 3.49664 7.35601 3.30213C6.72295 2.23874 7.11533 0.881934 8.24477 0.279562C9.38301 -0.315748 10.812 0.0720924 11.4514 1.13536C11.5654 1.32868 11.6507 1.54322 11.7008 1.76366L13.7128 0.693295C14.4524 0.305454 15.3975 0.553 15.8175 1.2485L16.9269 3.10749C17.0911 2.94717 17.2829 2.8069 17.4885 2.69255C18.6193 2.09724 20.0634 2.46504 20.7027 3.52831C21.3358 4.5975 20.9233 5.94839 19.7926 6.5437Z" fill="white"/>
</svg>
