<svg width="23" height="27" viewBox="0 0 23 27" fill="none" xmlns="http://www.w3.org/2000/svg">
<path d="M11.5 0L0 3.43125V10.0969C0 15.8906 3.00129 21.3469 8.02325 24.6938L11.5 27L14.9767 24.6938C19.9987 21.375 23 15.9188 23 10.0969V3.43125L11.5 0ZM21.3953 10.0969C21.3953 15.4125 18.6615 20.3906 14.0555 23.4281L11.5 25.1156L8.94445 23.4281C4.33851 20.3906 1.60466 15.3844 1.60466 10.0969V4.52812L11.5 1.57499L21.3953 4.52812V10.0969Z" fill="black"/>
<path d="M8 7.72749V10L9.51201 9.80115V7.69909C9.51201 7.04574 10.044 6.50601 10.688 6.50601H12.312C12.956 6.50601 13.488 7.04574 13.488 7.69909V9.80115L15 10V7.72749C15 6.22194 13.796 5.00047 12.312 5.00047H10.688C9.20399 4.97207 8 6.22194 8 7.72749Z" fill="black"/>
<path d="M11.5 10C11.4389 10 11.4083 10 11.3472 10L7.16111 10.4739C6.48889 10.5575 6 11.0592 6 11.6725V16.3275C6 16.9408 6.48889 17.4425 7.16111 17.5261L11.3472 18C11.3778 18 11.5917 18 11.6528 18L15.8389 17.5261C16.5111 17.4425 17 16.9408 17 16.3275V11.6725C17 11.0592 16.5111 10.5575 15.8389 10.4739L11.6528 10C11.5917 10 11.5611 10 11.5 10ZM12.4472 13.1219C12.4472 13.4286 12.2639 13.7073 11.9889 13.8467L12.2639 15.6585H10.7361L11.0111 13.8467C10.7361 13.7073 10.5528 13.4286 10.5528 13.1219C10.5528 12.6481 10.9806 12.2578 11.5 12.2578C12.0194 12.23 12.4472 12.6202 12.4472 13.1219Z" fill="black"/>
</svg>
