<svg width="130" height="33" viewBox="0 0 130 33" fill="none" xmlns="http://www.w3.org/2000/svg">
<path d="M41.9605 12.7811C41.9605 10.4499 39.6937 7.9741 35.7709 7.9741C31.3659 7.9741 26.5268 11.2055 25.7872 17.6523C25.0316 24.1635 29.083 27.0573 33.1665 27.0573C37.25 27.0573 39.3882 25.4657 41.5747 23.3435C39.6937 20.9803 37.2661 22.0735 36.7998 22.3146C36.2854 22.5719 35.6262 22.9255 34.2758 22.9255C32.7003 22.9255 31.0926 22.2182 31.0926 19.2761C41.1888 18.2793 41.9605 15.1122 41.9605 12.7811ZM36.9606 13.1669C36.8963 13.8904 36.6069 15.1283 31.4945 15.8196C32.5716 11.9933 34.6295 11.7039 35.578 11.7039C36.4622 11.7039 37.0249 12.3952 36.9606 13.1669ZM19.8549 13.7939C19.8549 13.7939 17.6845 20.6105 17.5077 21.1732C17.4434 20.5944 15.8517 8.35995 15.8517 8.35995C12.1541 8.35995 10.1766 10.9965 9.13163 13.7778C9.13163 13.7778 6.49504 20.6105 6.26996 21.1893C6.25388 20.6587 5.86804 13.8582 5.86804 13.8582C5.64296 10.4499 2.52406 8.37602 0 8.37602L3.0546 26.9126C6.92911 26.8965 9.0191 24.276 10.1123 21.4947C10.1123 21.4947 12.4435 15.4659 12.5399 15.1926C12.556 15.4498 14.2119 26.9126 14.2119 26.9126C18.1025 26.9126 20.1925 24.4528 21.3179 21.768L26.7679 8.37602C22.9255 8.37602 20.8999 10.9965 19.8549 13.7939ZM56.2367 7.94195C53.8413 7.94195 52.0085 9.24417 50.4651 11.1573V11.1412L51.8477 0C48.6645 0 46.0762 2.76521 45.5778 6.88088L43.1663 26.7679C44.999 26.7679 46.9443 26.2374 47.9893 24.8869C48.9218 26.0927 50.3204 27.0573 52.3944 27.0573C57.764 27.0573 61.4456 20.8195 61.4456 14.9675C61.4135 9.63002 58.8251 7.94195 56.2367 7.94195ZM55.7383 17.5077C55.1757 20.7713 53.359 22.9899 51.6066 22.9899C49.8381 22.9899 49.0825 22.2021 49.0825 22.2021C49.4201 19.3404 49.6292 17.588 50.2722 16.0768C50.9153 14.5656 52.4426 12.1541 54.0342 12.1541C55.5936 12.1541 56.301 14.228 55.7383 17.5077ZM74.8537 8.37602H71.1078L71.1239 8.1831C71.3811 5.73943 71.9599 4.45328 73.873 4.24428C75.1752 4.11567 75.754 3.44044 75.8987 2.70091C76.0112 2.12214 76.3649 0.112538 76.3649 0.112538C68.841 0.0643073 66.4777 3.31183 65.8667 8.26349L65.8507 8.37602H65.7703C64.5484 8.37602 63.198 9.75863 62.9729 11.511L62.8925 12.1541H65.4005L63.2944 29.5492L62.6514 32.6681C62.7318 32.6681 62.8282 32.6842 62.9086 32.6842C66.4294 32.5556 68.6802 29.7743 69.1786 25.739L70.8184 12.1541H71.992C73.1495 12.1541 74.5 10.9965 74.7411 9.06733L74.8537 8.37602ZM94.3388 8.05449C90.0141 8.05449 85.9306 11.2377 84.6766 16.2376C83.4226 21.2375 85.3197 27.1537 91.6861 27.1537C98.0365 27.1537 101.702 20.9963 101.702 15.8678C101.702 10.7715 98.2455 8.05449 94.3388 8.05449ZM96.0912 17.3469C95.8661 19.6137 94.8693 23.0542 92.1363 23.0542C89.3871 23.0542 89.773 19.035 90.0463 17.1218C90.3357 15.0801 91.4771 12.1702 93.9369 12.1702C96.1394 12.1702 96.3484 14.7907 96.0912 17.3469ZM123.068 13.7939C123.068 13.7939 120.898 20.6105 120.721 21.1732C120.657 20.5944 119.065 8.35995 119.065 8.35995C115.367 8.35995 113.39 10.9965 112.345 13.7778C112.345 13.7778 109.708 20.6105 109.483 21.1893C109.467 20.6587 109.081 13.8582 109.081 13.8582C108.856 10.4499 105.737 8.37602 103.213 8.37602L106.252 26.9126C110.126 26.8965 112.216 24.276 113.309 21.4947C113.309 21.4947 115.641 15.4659 115.721 15.1926C115.753 15.4498 117.393 26.9126 117.393 26.9126C121.284 26.9126 123.374 24.4528 124.499 21.768L129.949 8.37602C126.123 8.37602 124.097 10.9965 123.068 13.7939ZM78.3906 0.112538L75.2395 25.53L74.5965 28.665C74.6768 28.665 74.7733 28.681 74.8537 28.681C78.2459 28.6328 80.6574 25.6586 81.1076 21.9127L82.9242 7.33103C83.4709 2.87775 80.8182 0.112538 78.3906 0.112538Z" fill="#4353FF"/>
</svg>
