<svg width="30" height="30" viewBox="0 0 30 30" fill="none" xmlns="http://www.w3.org/2000/svg">
<path d="M4.56687 23.73L5.97662 22.723L7.38638 23.73C8.16664 24.2873 8.45356 25.3127 8.07584 26.1941C7.75432 26.9443 7.01664 27.4307 6.20043 27.4307H5.75282C4.9366 27.4307 4.19893 26.9443 3.8774 26.1941C3.49969 25.3127 3.78661 24.2873 4.56687 23.73Z" fill="white"/>
<path d="M9.50739 17.2307L7.72357 18.4199C6.63217 19.1475 5.97662 20.3724 5.97662 21.6841V22.723M5.97662 22.723L4.56687 23.73C3.78661 24.2873 3.49969 25.3127 3.8774 26.1941V26.1941C4.19893 26.9443 4.9366 27.4307 5.75282 27.4307H6.20043C7.01664 27.4307 7.75432 26.9443 8.07584 26.1941V26.1941C8.45356 25.3127 8.16664 24.2873 7.38638 23.73L5.97662 22.723Z" stroke="black" stroke-width="0.784615"/>
<path d="M25.4331 23.3378L24.0234 22.3308L22.6136 23.3378C21.8334 23.8951 21.5464 24.9205 21.9242 25.8019C22.2457 26.5521 22.9834 27.0385 23.7996 27.0385H24.2472C25.0634 27.0385 25.8011 26.5521 26.1226 25.8019C26.5003 24.9205 26.2134 23.8951 25.4331 23.3378Z" fill="white"/>
<path d="M20.4926 16.8385L22.2764 18.0277C23.3678 18.7553 24.0234 19.9802 24.0234 21.2919V22.3308M24.0234 22.3308L25.4331 23.3378C26.2134 23.8951 26.5003 24.9205 26.1226 25.8019V25.8019C25.8011 26.5521 25.0634 27.0385 24.2472 27.0385H23.7996C22.9834 27.0385 22.2457 26.5521 21.9242 25.8019V25.8019C21.5464 24.9205 21.8334 23.8951 22.6136 23.3378L24.0234 22.3308Z" stroke="black" stroke-width="0.784615"/>
<path d="M13.3579 24.7332L14.6078 23.9L15.491 24.3416C16.3923 24.7922 16.9616 25.7134 16.9616 26.7211V26.9908C16.9616 27.5237 16.7499 28.0347 16.3731 28.4115C15.9964 28.7883 15.4853 29 14.9525 29H14.263C13.7302 29 13.2192 28.7883 12.8424 28.4115C12.4656 28.0347 12.2539 27.5237 12.2539 26.9908V26.7961C12.2539 25.9671 12.6682 25.193 13.3579 24.7332Z" fill="white"/>
<path d="M14.6078 19.5846V23.9M14.6078 23.9L13.3579 24.7332C12.6682 25.193 12.2539 25.9671 12.2539 26.7961V26.9908C12.2539 27.5237 12.4656 28.0347 12.8424 28.4115V28.4115C13.2192 28.7883 13.7302 29 14.263 29H14.9525C15.4853 29 15.9964 28.7883 16.3731 28.4115V28.4115C16.7499 28.0347 16.9616 27.5237 16.9616 26.9908V26.7211C16.9616 25.7134 16.3923 24.7922 15.491 24.3416L14.6078 23.9Z" stroke="black" stroke-width="0.784615"/>
<circle cx="15.0007" cy="13.7" r="4.31538" fill="white" stroke="#27272A" stroke-width="0.784615"/>
<path d="M25.2008 13.7C25.2008 8.0667 20.6341 3.5 15.0008 3.5C9.36748 3.5 4.80078 8.0667 4.80078 13.7" stroke="#27272A" stroke-width="0.784615"/>
</svg>
