<svg width="24" height="24" viewBox="0 0 24 24" fill="none" xmlns="http://www.w3.org/2000/svg">
<mask id="mask0_1233_1742" style="mask-type:alpha" maskUnits="userSpaceOnUse" x="0" y="0" width="24" height="24">
<rect width="24" height="24" fill="#E2F1E1"/>
</mask>
<g mask="url(#mask0_1233_1742)">
<path d="M10.0821 15.3231L6.75383 11.9949C6.62906 11.8701 6.47607 11.8034 6.29487 11.7949C6.11367 11.7863 5.95213 11.853 5.81027 11.9949C5.66838 12.1368 5.59743 12.294 5.59743 12.4667C5.59743 12.6393 5.66838 12.7966 5.81027 12.9385L9.3282 16.4564C9.54358 16.6718 9.79487 16.7795 10.0821 16.7795C10.3692 16.7795 10.6205 16.6718 10.8359 16.4564L18.1385 9.15383C18.2632 9.02906 18.3299 8.87607 18.3385 8.69487C18.347 8.51367 18.2804 8.35213 18.1385 8.21027C17.9966 8.06838 17.8393 7.99743 17.6667 7.99743C17.494 7.99743 17.3368 8.06838 17.1949 8.21027L10.0821 15.3231ZM12.0045 24C10.3451 24 8.78496 23.6851 7.32413 23.0554C5.86331 22.4256 4.59259 21.5709 3.51197 20.4913C2.43137 19.4117 1.57589 18.1422 0.945533 16.6827C0.315178 15.2233 0 13.6638 0 12.0045C0 10.3451 0.314878 8.78496 0.944633 7.32413C1.57441 5.86331 2.4291 4.59259 3.5087 3.51197C4.5883 2.43137 5.85782 1.57589 7.31727 0.945534C8.77673 0.315179 10.3362 0 11.9955 0C13.6549 0 15.215 0.314877 16.6759 0.944633C18.1367 1.57441 19.4074 2.4291 20.488 3.5087C21.5686 4.5883 22.4241 5.85782 23.0545 7.31727C23.6848 8.77673 24 10.3362 24 11.9955C24 13.6549 23.6851 15.215 23.0554 16.6759C22.4256 18.1367 21.5709 19.4074 20.4913 20.488C19.4117 21.5686 18.1422 22.4241 16.6827 23.0545C15.2233 23.6848 13.6638 24 12.0045 24Z" fill="#ECFCEB"/>
<path d="M9.25179 15.5872L17.8347 7.18818C17.9617 7.06273 18.1234 7 18.3197 7C18.5161 7 18.6785 7.06211 18.8071 7.18634C18.9357 7.31058 19 7.4687 19 7.66069C19 7.8527 18.9357 8.01143 18.8071 8.13689L10.0287 16.6752C9.80671 16.8917 9.54775 17 9.25179 17C8.95583 17 8.69687 16.8917 8.47491 16.6752L5.19289 13.4991C5.0643 13.3752 5 13.2174 5 13.0259C5 12.8343 5.06367 12.6758 5.191 12.5504C5.31836 12.4249 5.48043 12.3622 5.67723 12.3622C5.87405 12.3622 6.03675 12.4249 6.16534 12.5504L9.25179 15.5872Z" fill="#5E9B5C"/>
</g>
</svg>
