<svg width="1193" height="374" viewBox="0 0 1193 374" fill="none" xmlns="http://www.w3.org/2000/svg">
<g clip-path="url(#clip0_2146_17519)">
<rect width="1193" height="374" rx="16" fill="#1F1F1F"/>
<g clip-path="url(#clip1_2146_17519)">
<mask id="mask0_2146_17519" style="mask-type:luminance" maskUnits="userSpaceOnUse" x="671" y="59" width="508" height="255">
<path d="M671 59H1179V313.605H671V59Z" fill="white"/>
</mask>
<g mask="url(#mask0_2146_17519)">
<mask id="mask1_2146_17519" style="mask-type:luminance" maskUnits="userSpaceOnUse" x="683" y="59" width="484" height="255">
<path d="M683 59H1167V313.605H683V59Z" fill="white"/>
</mask>
<g mask="url(#mask1_2146_17519)">
<mask id="mask2_2146_17519" style="mask-type:luminance" maskUnits="userSpaceOnUse" x="683" y="59" width="484" height="255">
<path d="M683.125 59H1166.88V313.605H683.125V59Z" fill="white"/>
</mask>
<g mask="url(#mask2_2146_17519)">
<path d="M880.443 236.163C880.443 193.783 846.088 159.428 803.708 159.428C761.328 159.428 726.973 193.783 726.973 236.163C726.973 278.542 761.328 312.898 803.708 312.898C846.088 312.898 880.443 278.542 880.443 236.163Z" fill="#1F1F1F" stroke="#585858" stroke-width="0.707" stroke-miterlimit="10"/>
<path d="M870.176 83.2319L820.523 101.304C819.419 101.705 818.405 102.32 817.539 103.114C816.674 103.907 815.972 104.863 815.476 105.928C814.98 106.992 814.698 108.144 814.647 109.317C814.596 110.491 814.777 111.662 815.179 112.766L833.251 162.418C833.652 163.521 834.267 164.535 835.06 165.401C835.854 166.267 836.81 166.968 837.874 167.464C838.938 167.96 840.09 168.242 841.263 168.294C842.436 168.345 843.608 168.164 844.712 167.763L894.365 149.691C896.593 148.879 898.408 147.216 899.41 145.067C900.412 142.917 900.52 140.457 899.709 138.229L881.637 88.5769C881.235 87.4734 880.62 86.4597 879.827 85.5939C879.033 84.7281 878.077 84.027 877.013 83.5307C875.949 83.0343 874.797 82.7525 873.624 82.7012C872.451 82.6499 871.279 82.8303 870.176 83.2319ZM1122.67 93.6549C1123.46 93.6549 1124.25 93.4994 1124.98 93.1973C1125.7 92.8952 1126.37 92.4524 1126.93 91.8941C1127.48 91.3359 1127.93 90.6732 1128.23 89.9439C1128.53 89.2145 1128.69 88.4328 1128.69 87.6434C1128.69 86.8539 1128.53 86.0722 1128.23 85.3429C1127.93 84.6135 1127.48 83.9508 1126.93 83.3926C1126.37 82.8344 1125.7 82.3916 1124.98 82.0895C1124.25 81.7874 1123.46 81.6319 1122.67 81.6319C1121.08 81.6319 1119.55 82.2652 1118.42 83.3926C1117.3 84.52 1116.66 86.049 1116.66 87.6434C1116.66 89.2377 1117.3 90.7668 1118.42 91.8941C1119.55 93.0215 1121.08 93.6549 1122.67 93.6549ZM1102.87 93.6549C1103.66 93.6549 1104.44 93.4994 1105.17 93.1973C1105.9 92.8952 1106.56 92.4524 1107.12 91.8941C1107.68 91.3359 1108.12 90.6732 1108.43 89.9439C1108.73 89.2145 1108.88 88.4328 1108.88 87.6434C1108.88 86.8539 1108.73 86.0722 1108.43 85.3429C1108.12 84.6135 1107.68 83.9508 1107.12 83.3926C1106.56 82.8344 1105.9 82.3916 1105.17 82.0895C1104.44 81.7874 1103.66 81.6319 1102.87 81.6319C1101.28 81.6319 1099.75 82.2652 1098.62 83.3926C1097.49 84.52 1096.86 86.049 1096.86 87.6434C1096.86 89.2377 1097.49 90.7668 1098.62 91.8941C1099.75 93.0215 1101.28 93.6549 1102.87 93.6549ZM1083.07 93.6549C1083.86 93.6549 1084.64 93.4994 1085.37 93.1972C1086.1 92.8951 1086.76 92.4523 1087.32 91.894C1087.88 91.3357 1088.32 90.673 1088.62 89.9436C1088.93 89.2141 1089.08 88.4324 1089.08 87.6429C1089.08 86.8534 1088.93 86.0716 1088.62 85.3422C1088.32 84.6128 1087.88 83.95 1087.32 83.3917C1086.76 82.8335 1086.1 82.3906 1085.37 82.0885C1084.64 81.7864 1083.86 81.6309 1083.07 81.6309C1081.47 81.6309 1079.94 82.2643 1078.82 83.3917C1077.69 84.5192 1077.06 86.0484 1077.06 87.6429C1077.06 89.2373 1077.69 90.7665 1078.82 91.894C1079.94 93.0215 1081.47 93.6549 1083.07 93.6549Z" fill="#1F1F1F" stroke="#585858" stroke-width="0.707" stroke-miterlimit="10"/>
<path d="M1058.41 238.871C1058.43 236.497 1060.77 234.481 1063.36 235.285L1119.21 252.791C1121.18 253.404 1121.95 255.369 1121.48 257.015L1119.42 270.438C1119.28 271.297 1118.92 272.104 1118.37 272.78C1117.82 273.456 1117.11 273.977 1116.3 274.291L1107.73 277.609L1097.08 281.73C1096.37 282.006 1095.8 282.546 1095.48 283.236L1088.24 299.108C1086.41 302.426 1081.63 302.4 1079.83 299.07L1058.85 254.373C1058.21 253.018 1057.91 251.53 1057.97 250.035L1058.41 238.871Z" fill="#1F1F1F" stroke="#545454" stroke-width="0.707" stroke-miterlimit="10" stroke-linejoin="round"/>
<path d="M1096.03 268.103L1088.97 280.862C1087.14 284.18 1082.36 284.154 1080.56 280.824L1058.87 240.708C1057.25 237.709 1060.1 234.264 1063.36 235.285L1119.21 252.791C1122.36 253.774 1122.42 258.201 1119.3 259.286L1097.63 266.763C1096.94 267 1096.37 267.482 1096.02 268.116L1096.03 268.103Z" fill="#1F1F1F" stroke="#545454" stroke-width="0.707" stroke-miterlimit="10" stroke-linejoin="round"/>
<path opacity="0.8" d="M1095.88 282.61L1097 267.057M1088.26 299.096L1090.47 278.068M1079.84 299.057L1079.34 278.731" stroke="#545454" stroke-width="0.707" stroke-miterlimit="10" stroke-linejoin="round"/>
<path d="M1091.27 165.183L1072.6 194.743C1071.63 196.294 1070.28 197.574 1068.68 198.46C1067.08 199.347 1065.28 199.812 1063.46 199.812H1024.99C1023.16 199.814 1021.36 199.35 1019.76 198.463C1018.16 197.576 1016.81 196.296 1015.84 194.743L997.367 165.183C996.294 163.47 995.724 161.491 995.723 159.47C995.721 157.449 996.287 155.468 997.357 153.754L1016.02 124.194C1016.99 122.642 1018.34 121.361 1019.94 120.472C1021.53 119.584 1023.33 119.117 1025.16 119.115H1063.64C1067.36 119.115 1070.82 121.033 1072.78 124.173L1091.26 153.754C1092.33 155.466 1092.9 157.446 1092.9 159.467C1092.9 161.488 1092.34 163.468 1091.27 165.183Z" fill="#1F1F1F" stroke="#545454" stroke-width="0.707" stroke-miterlimit="10"/>
<path opacity="0.8" d="M1065.63 130.09C1066.28 129.05 1067.37 128.928 1067.81 128.928C1068.25 128.928 1069.33 129.039 1069.99 130.089L1071.23 132.089V132.048L1085.91 155.541C1087.4 157.934 1087.4 161.023 1085.91 163.406L1079.01 174.38L1069.8 188.978C1069.58 189.333 1069.28 189.626 1068.91 189.828C1068.55 190.03 1068.14 190.133 1067.73 190.129C1067.31 190.129 1066.29 190.018 1065.64 188.968L1049.72 163.476C1048.22 161.094 1048.21 158.014 1049.68 155.612L1065.63 130.09Z" fill="#1F1F1F" stroke="#545454" stroke-width="0.707" stroke-miterlimit="10"/>
<path d="M840.141 244.945C840.038 242.246 840.759 239.527 842.242 237.147L931.491 94.3071C932.745 92.2978 934.491 90.6411 936.564 89.4932C938.636 88.3453 940.967 87.7441 943.336 87.7461H993.168C995.537 87.7459 997.869 88.3478 999.942 89.4952C1002.02 90.6426 1003.76 92.298 1005.02 94.3061L1006.9 97.3141L1007.57 98.3861L1017.02 113.506L1028.96 132.602C1030.35 134.823 1031.08 137.389 1031.08 140.008C1031.08 142.627 1030.35 145.193 1028.96 147.414L953.935 267.47L941.616 287.184L941.575 287.256L939.721 290.243C938.462 292.251 936.714 293.907 934.64 295.055C932.567 296.202 930.236 296.804 927.866 296.804H878.024C873.204 296.804 868.723 294.312 866.169 290.243L853.304 269.653L842.242 251.937C840.922 249.839 840.196 247.422 840.141 244.944V244.945Z" fill="#1F1F1F" stroke="#545454" stroke-width="0.707" stroke-linejoin="round"/>
<path opacity="0.8" d="M934.848 282.591C934.302 282.591 932.932 282.437 932.057 281.046L921.304 263.835L913.105 251.011L911.58 248.58C910.637 247.077 910.114 245.348 910.066 243.575C910.001 241.588 910.528 239.627 911.58 237.941L951.678 173.771L996.329 102.258C997.205 100.858 998.585 100.703 999.131 100.703C999.677 100.703 1001.06 100.858 1001.93 102.258L1002.58 103.298L1022.44 134.704C1024.46 137.938 1024.46 142.12 1022.44 145.354L937.67 280.974L937.629 281.046C936.754 282.437 935.394 282.591 934.838 282.591H934.848Z" fill="#1F1F1F" stroke="#545454" stroke-width="0.919" stroke-miterlimit="10" stroke-linejoin="round"/>
</g>
</g>
</g>
</g>
<line x1="715.25" y1="-1" x2="715.25" y2="373" stroke="url(#paint0_linear_2146_17519)" stroke-width="0.5"/>
<line x1="1146.25" y1="-1" x2="1146.25" y2="373" stroke="url(#paint1_linear_2146_17519)" stroke-width="0.5"/>
<line x1="-35" y1="323.75" x2="1193" y2="323.75" stroke="url(#paint2_linear_2146_17519)" stroke-width="0.5"/>
<line x1="-35" y1="51.75" x2="1193" y2="51.7501" stroke="url(#paint3_linear_2146_17519)" stroke-width="0.5"/>
</g>
<defs>
<linearGradient id="paint0_linear_2146_17519" x1="714.5" y1="-1" x2="714.5" y2="373" gradientUnits="userSpaceOnUse">
<stop stop-color="#EEEEEE"/>
<stop offset="0.5" stop-color="#888888"/>
<stop offset="1" stop-color="#EEEEEE"/>
</linearGradient>
<linearGradient id="paint1_linear_2146_17519" x1="1145.5" y1="-1" x2="1145.5" y2="373" gradientUnits="userSpaceOnUse">
<stop stop-color="#EEEEEE"/>
<stop offset="0.5" stop-color="#888888"/>
<stop offset="1" stop-color="#EEEEEE"/>
</linearGradient>
<linearGradient id="paint2_linear_2146_17519" x1="-35" y1="324.5" x2="1193" y2="324.5" gradientUnits="userSpaceOnUse">
<stop stop-color="#EEEEEE"/>
<stop offset="0.5" stop-color="#888888"/>
<stop offset="1" stop-color="#EEEEEE"/>
</linearGradient>
<linearGradient id="paint3_linear_2146_17519" x1="-35" y1="52.5" x2="1193" y2="52.5001" gradientUnits="userSpaceOnUse">
<stop stop-color="#EEEEEE"/>
<stop offset="0.5" stop-color="#888888"/>
<stop offset="1" stop-color="#EEEEEE"/>
</linearGradient>
<clipPath id="clip0_2146_17519">
<rect width="1193" height="374" rx="16" fill="white"/>
</clipPath>
<clipPath id="clip1_2146_17519">
<rect width="508" height="255" fill="white" transform="translate(671 59)"/>
</clipPath>
</defs>
</svg>
