<svg width="350" height="573" viewBox="0 0 350 573" fill="none" xmlns="http://www.w3.org/2000/svg">
<rect width="350" height="573" rx="16" fill="#1F1F1F"/>
<line opacity="0.58" x1="334" y1="527.25" x2="15" y2="527.25" stroke="url(#paint0_linear_2922_17868)" stroke-width="0.5"/>
<line opacity="0.58" x1="30.25" y1="317" x2="30.25" y2="549" stroke="url(#paint1_linear_2922_17868)" stroke-width="0.5"/>
<line opacity="0.58" x1="334" y1="337.25" x2="15" y2="337.25" stroke="url(#paint2_linear_2922_17868)" stroke-width="0.5"/>
<line opacity="0.58" x1="319.25" y1="317" x2="319.25" y2="549" stroke="url(#paint3_linear_2922_17868)" stroke-width="0.5"/>
<mask id="mask0_2922_17868" style="mask-type:luminance" maskUnits="userSpaceOnUse" x="5" y="351" width="320" height="161">
<path d="M5 351H325V511.381H5V351Z" fill="white"/>
</mask>
<g mask="url(#mask0_2922_17868)">
<mask id="mask1_2922_17868" style="mask-type:luminance" maskUnits="userSpaceOnUse" x="12" y="351" width="306" height="161">
<path d="M12.5566 351.001H317.439V511.382H12.5566V351.001Z" fill="white"/>
</mask>
<g mask="url(#mask1_2922_17868)">
<mask id="mask2_2922_17868" style="mask-type:luminance" maskUnits="userSpaceOnUse" x="12" y="351" width="306" height="161">
<path d="M12.6387 351.002H317.363V511.383H12.6387V351.002Z" fill="white"/>
</mask>
<g mask="url(#mask2_2922_17868)">
<path d="M136.934 462.601C136.934 435.905 115.293 414.264 88.5968 414.264C61.9007 414.264 40.2598 435.905 40.2598 462.601C40.2598 489.296 61.9007 510.938 88.5968 510.938C115.293 510.938 136.934 489.296 136.934 462.601Z" fill="#1F1F1F" stroke="#585858" stroke-width="0.445354" stroke-miterlimit="10"/>
<path d="M130.466 366.266L99.1888 377.65C98.4936 377.903 97.8551 378.291 97.3096 378.79C96.7642 379.29 96.3226 379.893 96.01 380.563C95.6974 381.233 95.5199 381.959 95.4877 382.698C95.4556 383.437 95.5693 384.175 95.8225 384.87L107.206 416.147C107.459 416.842 107.847 417.481 108.347 418.026C108.846 418.572 109.448 419.013 110.119 419.326C110.789 419.639 111.515 419.816 112.254 419.848C112.993 419.881 113.731 419.767 114.426 419.514L145.703 408.13C147.107 407.619 148.251 406.571 148.882 405.217C149.513 403.863 149.581 402.314 149.07 400.91L137.686 369.633C137.433 368.938 137.045 368.3 136.546 367.754C136.046 367.209 135.444 366.767 134.773 366.455C134.103 366.142 133.378 365.964 132.639 365.932C131.9 365.9 131.161 366.013 130.466 366.266ZM289.521 372.832C290.018 372.832 290.51 372.734 290.97 372.544C291.429 372.353 291.847 372.074 292.198 371.723C292.55 371.371 292.829 370.954 293.019 370.494C293.21 370.035 293.308 369.542 293.308 369.045C293.308 368.548 293.21 368.056 293.019 367.596C292.829 367.137 292.55 366.719 292.198 366.368C291.847 366.016 291.429 365.737 290.97 365.547C290.51 365.356 290.018 365.258 289.521 365.258C288.516 365.258 287.553 365.657 286.843 366.368C286.133 367.078 285.734 368.041 285.734 369.045C285.734 370.05 286.133 371.013 286.843 371.723C287.553 372.433 288.516 372.832 289.521 372.832ZM277.046 372.832C277.544 372.832 278.036 372.734 278.496 372.544C278.955 372.353 279.372 372.074 279.724 371.723C280.076 371.371 280.355 370.954 280.545 370.494C280.735 370.035 280.833 369.542 280.833 369.045C280.833 368.548 280.735 368.056 280.545 367.596C280.355 367.137 280.076 366.719 279.724 366.368C279.372 366.016 278.955 365.737 278.496 365.547C278.036 365.356 277.544 365.258 277.046 365.258C276.042 365.258 275.079 365.657 274.369 366.368C273.659 367.078 273.26 368.041 273.26 369.045C273.26 370.05 273.659 371.013 274.369 371.723C275.079 372.433 276.042 372.832 277.046 372.832ZM264.572 372.832C265.069 372.832 265.562 372.734 266.021 372.544C266.481 372.353 266.898 372.074 267.25 371.723C267.602 371.371 267.881 370.954 268.071 370.494C268.261 370.035 268.359 369.542 268.359 369.045C268.359 368.548 268.261 368.055 268.071 367.596C267.881 367.136 267.602 366.719 267.25 366.367C266.898 366.015 266.481 365.736 266.021 365.546C265.562 365.356 265.069 365.258 264.572 365.258C263.568 365.258 262.604 365.657 261.894 366.367C261.184 367.077 260.785 368.041 260.785 369.045C260.785 370.049 261.184 371.013 261.894 371.723C262.604 372.433 263.568 372.832 264.572 372.832Z" fill="#1F1F1F" stroke="#585858" stroke-width="0.445354" stroke-miterlimit="10"/>
<path d="M249.041 464.307C249.05 462.811 250.524 461.541 252.159 462.048L287.34 473.075C288.581 473.461 289.064 474.699 288.766 475.736L287.469 484.191C287.382 484.732 287.155 485.241 286.81 485.667C286.465 486.093 286.015 486.421 285.504 486.619L280.107 488.709L273.398 491.305C272.952 491.479 272.592 491.819 272.391 492.253L267.833 502.251C266.681 504.341 263.668 504.325 262.533 502.227L249.315 474.072C248.916 473.218 248.725 472.281 248.76 471.339L249.041 464.307Z" fill="#1F1F1F" stroke="#545454" stroke-width="0.445354" stroke-miterlimit="10" stroke-linejoin="round"/>
<path d="M272.737 482.72L268.291 490.757C267.14 492.847 264.127 492.831 262.992 490.733L249.331 465.463C248.308 463.574 250.105 461.404 252.158 462.047L287.34 473.074C289.322 473.694 289.362 476.482 287.397 477.166L273.744 481.876C273.313 482.025 272.951 482.329 272.73 482.728L272.737 482.72Z" fill="#1F1F1F" stroke="#545454" stroke-width="0.445354" stroke-miterlimit="10" stroke-linejoin="round"/>
<path opacity="0.8" d="M272.641 491.859L273.35 482.062M267.84 502.244L269.234 488.998M262.54 502.219L262.227 489.415" stroke="#545454" stroke-width="0.445354" stroke-miterlimit="10" stroke-linejoin="round"/>
<path d="M269.738 417.889L257.978 436.51C257.368 437.487 256.519 438.293 255.511 438.852C254.503 439.41 253.369 439.703 252.217 439.703H227.986C226.834 439.704 225.7 439.412 224.692 438.853C223.683 438.295 222.834 437.488 222.225 436.51L210.587 417.889C209.911 416.811 209.552 415.564 209.551 414.291C209.55 413.018 209.906 411.77 210.58 410.69L222.339 392.069C222.948 391.092 223.796 390.285 224.803 389.725C225.81 389.166 226.943 388.871 228.095 388.87H252.331C254.678 388.87 256.853 390.078 258.093 392.056L269.731 410.69C270.407 411.769 270.766 413.016 270.767 414.289C270.768 415.562 270.411 416.809 269.738 417.889Z" fill="#1F1F1F" stroke="#545454" stroke-width="0.445354" stroke-miterlimit="10"/>
<path opacity="0.8" d="M253.586 395.783C254 395.128 254.686 395.051 254.959 395.051C255.24 395.051 255.92 395.121 256.333 395.782L257.116 397.042V397.016L266.362 411.815C267.303 413.322 267.303 415.268 266.362 416.769L262.019 423.682L256.212 432.878C256.077 433.101 255.885 433.286 255.657 433.413C255.428 433.54 255.171 433.605 254.909 433.603C254.648 433.603 254.006 433.533 253.593 432.871L243.563 416.813C242.622 415.313 242.616 413.373 243.538 411.86L253.586 395.783Z" fill="#1F1F1F" stroke="#545454" stroke-width="0.445354" stroke-miterlimit="10"/>
<path d="M111.547 468.133C111.482 466.433 111.936 464.72 112.871 463.221L169.09 373.243C169.881 371.978 170.981 370.934 172.286 370.211C173.592 369.488 175.06 369.109 176.552 369.11H207.942C209.435 369.11 210.903 369.489 212.21 370.212C213.516 370.935 214.617 371.978 215.41 373.243L216.591 375.137L217.012 375.813L222.969 385.337L230.488 397.366C231.362 398.765 231.825 400.382 231.825 402.031C231.825 403.681 231.362 405.297 230.488 406.696L183.228 482.322L175.468 494.741L175.443 494.786L174.275 496.668C173.482 497.933 172.381 498.975 171.075 499.698C169.768 500.421 168.3 500.8 166.807 500.8H135.41C132.374 500.8 129.552 499.231 127.943 496.668L119.839 483.697L112.871 472.538C112.039 471.216 111.582 469.694 111.547 468.133V468.133Z" fill="#1F1F1F" stroke="#545454" stroke-width="0.445354" stroke-linejoin="round"/>
<path opacity="0.8" d="M171.204 491.847C170.86 491.847 169.997 491.75 169.446 490.873L162.672 480.032L157.508 471.954L156.547 470.422C155.953 469.476 155.624 468.387 155.593 467.27C155.552 466.018 155.884 464.783 156.547 463.721L181.805 423.299L209.932 378.251C210.484 377.369 211.353 377.271 211.697 377.271C212.041 377.271 212.91 377.369 213.462 378.251L213.87 378.906L226.38 398.689C227.651 400.727 227.651 403.361 226.38 405.398L172.982 490.828L172.956 490.873C172.405 491.75 171.548 491.847 171.198 491.847H171.204Z" fill="#1F1F1F" stroke="#545454" stroke-width="0.578898" stroke-miterlimit="10" stroke-linejoin="round"/>
</g>
</g>
</g>
<defs>
<linearGradient id="paint0_linear_2922_17868" x1="334" y1="526.5" x2="15" y2="526.5" gradientUnits="userSpaceOnUse">
<stop stop-color="#EEEEEE"/>
<stop offset="0.5" stop-color="#888888"/>
<stop offset="1" stop-color="#EEEEEE"/>
</linearGradient>
<linearGradient id="paint1_linear_2922_17868" x1="29.5" y1="317" x2="29.5" y2="549" gradientUnits="userSpaceOnUse">
<stop stop-color="#EEEEEE"/>
<stop offset="0.5" stop-color="#888888"/>
<stop offset="1" stop-color="#EEEEEE"/>
</linearGradient>
<linearGradient id="paint2_linear_2922_17868" x1="334" y1="336.5" x2="15" y2="336.5" gradientUnits="userSpaceOnUse">
<stop stop-color="#EEEEEE"/>
<stop offset="0.5" stop-color="#888888"/>
<stop offset="1" stop-color="#EEEEEE"/>
</linearGradient>
<linearGradient id="paint3_linear_2922_17868" x1="318.5" y1="317" x2="318.5" y2="549" gradientUnits="userSpaceOnUse">
<stop stop-color="#EEEEEE"/>
<stop offset="0.5" stop-color="#888888"/>
<stop offset="1" stop-color="#EEEEEE"/>
</linearGradient>
</defs>
</svg>
