<svg width="179" height="58" viewBox="0 0 179 58" fill="none" xmlns="http://www.w3.org/2000/svg">
<path d="M2.5978 33.5978C1.36973 32.3698 0.686749 30.7439 0.675359 29.0199C0.665114 27.2935 1.32605 25.6757 2.53753 24.4625C3.74814 23.2507 5.36274 22.5894 7.08678 22.6014C7.44048 22.6037 7.81359 22.645 8.2616 22.7301C8.37732 22.7535 8.50296 22.7845 8.62774 22.8163C8.87934 22.8827 9.12666 22.9598 9.37844 23.0541C9.50739 23.1028 9.6349 23.1518 9.76334 23.211C9.99343 23.3188 10.2341 23.451 10.4712 23.6027L10.6204 23.6872C10.6484 23.7025 10.676 23.7163 10.7023 23.7328L11.8163 24.6991C11.9458 24.8396 12.0729 25.0047 12.2056 25.1784L12.2334 25.2148C12.2814 25.2738 12.3203 25.3173 12.3604 25.3614C12.3747 25.3769 12.3896 25.3918 12.4022 25.409L12.4391 25.4615L12.4798 25.5051C12.5549 25.5842 12.6295 25.6617 12.7054 25.7376C14.4648 27.497 16.9427 28.4948 19.5039 28.4738C22.0568 28.4531 24.4858 27.4181 26.1672 25.635L26.2157 25.5836L26.2551 25.5244C26.2991 25.4587 26.3536 25.4019 26.4061 25.3418C26.449 25.2936 26.492 25.2448 26.5346 25.1922L26.6588 25.0365C26.7313 24.9429 26.8048 24.8478 26.887 24.7615L27.9089 23.8775L27.9373 23.862L27.9563 23.843C27.9838 23.8266 28.1479 23.7379 28.1479 23.7379C28.4501 23.5526 28.6784 23.4283 28.8924 23.3313C29.0108 23.2783 29.1371 23.2333 29.2669 23.1859C29.5047 23.0977 29.7574 23.0203 30.0268 22.9533L30.0685 22.9431C30.1738 22.9173 30.2784 22.8916 30.3886 22.8708C30.8318 22.7923 31.2027 22.7558 31.55 22.7586C33.2764 22.77 34.9031 23.4522 36.132 24.6811C37.3601 25.9092 38.0425 27.535 38.0545 29.2602C38.0765 32.8207 35.1957 35.6987 31.6355 35.6751C31.2824 35.6735 30.9017 35.6315 30.4702 35.5457C30.3505 35.5246 30.2548 35.4987 30.1556 35.4728L30.1018 35.4582C29.8339 35.3889 29.5816 35.3091 29.354 35.2234C29.2192 35.1729 29.0938 35.1248 28.9732 35.0688C28.7373 34.9599 28.5009 34.8303 28.2473 34.6707C28.1937 34.6378 28.1432 34.6099 28.0934 34.5814C28.0634 34.5641 28.0319 34.5476 28.0019 34.5292L26.9127 33.5807C26.7901 33.4455 26.6692 33.2905 26.5424 33.1274L26.4877 33.0571C26.4464 33.0042 26.4049 32.9587 26.366 32.914C26.3499 32.8962 26.3326 32.8789 26.3183 32.8594L26.2884 32.8209L26.2471 32.7727C26.174 32.6938 26.0998 32.6167 26.0235 32.5404C24.2635 30.7804 21.7854 29.7824 19.2256 29.8025C16.6721 29.8227 14.242 30.8576 12.5588 32.6407L12.5098 32.6927L12.4689 32.7516C12.4293 32.8129 12.3785 32.8678 12.3309 32.9229C12.2811 32.9798 12.2335 33.0361 12.1857 33.0951C12.148 33.1416 12.1001 33.2017 12.0532 33.2621C11.9858 33.3464 11.9213 33.4308 11.8475 33.5076L10.7851 34.4232C10.7544 34.4428 10.7197 34.4606 10.685 34.4795L10.5707 34.5424C10.2982 34.7125 10.0598 34.8428 9.83482 34.945C9.7164 34.998 9.58574 35.0445 9.45277 35.0933C9.21436 35.1809 8.96802 35.2565 8.70361 35.321C8.5775 35.3525 8.45921 35.3819 8.34204 35.4038C7.88377 35.485 7.52306 35.5208 7.17197 35.5171C5.44706 35.5054 3.82354 34.8236 2.5978 33.5978Z" fill="#1F1F1F"/>
<path d="M18.5025 56C16.7657 56 15.1326 55.3233 13.9042 54.0948C12.6766 52.8683 12 51.2359 12 49.499C12 47.7628 12.675 46.1317 13.9013 44.9065C15.1305 43.6767 16.7644 43 18.5017 43C20.2364 43 21.8686 43.6754 23.0941 44.9023C24.3234 46.1308 25 47.7641 25 49.5002C25 51.2372 24.3238 52.8696 23.0954 54.0981C21.8686 55.3241 20.2372 56 18.5025 56Z" fill="#1F1F1F"/>
<path d="M172.977 57C170.569 57 168.402 56.398 166.475 55.1939C164.549 53.9417 163.032 52.256 161.924 50.1368C160.816 48.0176 160.262 45.6336 160.262 42.9846V8.52414C160.262 7.46455 160.599 6.59762 161.274 5.92335C161.948 5.24907 162.815 4.91193 163.874 4.91193C164.934 4.91193 165.801 5.24907 166.475 5.92335C167.149 6.59762 167.487 7.46455 167.487 8.52414V42.9846C167.487 44.9111 168.016 46.5246 169.076 47.825C170.136 49.1254 171.436 49.7756 172.977 49.7756H175.433C176.3 49.7756 177.023 50.1127 177.601 50.787C178.227 51.4613 178.54 52.3282 178.54 53.3878C178.54 54.4474 178.131 55.3143 177.312 55.9886C176.541 56.6629 175.53 57 174.278 57H172.977ZM156.939 25.1403C155.928 25.1403 155.109 24.8513 154.483 24.2734C153.857 23.6954 153.543 22.973 153.543 22.1061C153.543 21.1428 153.857 20.3722 154.483 19.7942C155.109 19.2163 155.928 18.9273 156.939 18.9273H173.627C174.639 18.9273 175.458 19.2163 176.084 19.7942C176.71 20.3722 177.023 21.1428 177.023 22.1061C177.023 22.973 176.71 23.6954 176.084 24.2734C175.458 24.8513 174.639 25.1403 173.627 25.1403H156.939Z" fill="#1F1F1F"/>
<path d="M133.546 57.289C130.03 57.289 126.875 56.422 124.082 54.6882C121.288 52.9062 119.073 50.5221 117.435 47.536C115.846 44.5017 115.051 41.0822 115.051 37.2773C115.051 33.4725 115.918 30.0529 117.652 27.0186C119.434 23.9844 121.818 21.6003 124.804 19.8665C127.839 18.0844 131.234 17.1934 134.991 17.1934C138.747 17.1934 142.119 18.0844 145.105 19.8665C148.091 21.6003 150.451 23.9844 152.185 27.0186C153.967 30.0529 154.858 33.4725 154.858 37.2773H152.04C152.04 41.0822 151.222 44.5017 149.584 47.536C147.995 50.5221 145.803 52.9062 143.01 54.6882C140.216 56.422 137.062 57.289 133.546 57.289ZM134.991 50.787C137.447 50.787 139.639 50.209 141.565 49.0531C143.492 47.8491 145.009 46.2356 146.116 44.2128C147.224 42.1418 147.778 39.8299 147.778 37.2773C147.778 34.6765 147.224 32.3647 146.116 30.3419C145.009 28.2709 143.492 26.6574 141.565 25.5015C139.639 24.2974 137.447 23.6954 134.991 23.6954C132.583 23.6954 130.391 24.2974 128.417 25.5015C126.49 26.6574 124.949 28.2709 123.793 30.3419C122.685 32.3647 122.131 34.6765 122.131 37.2773C122.131 39.8299 122.685 42.1418 123.793 44.2128C124.949 46.2356 126.49 47.8491 128.417 49.0531C130.391 50.209 132.583 50.787 134.991 50.787ZM151.174 57.0722C150.114 57.0722 149.223 56.7351 148.5 56.0608C147.826 55.3384 147.489 54.4474 147.489 53.3878V42.3344L148.862 34.6765L154.858 37.2773V53.3878C154.858 54.4474 154.497 55.3384 153.774 56.0608C153.1 56.7351 152.233 57.0722 151.174 57.0722Z" fill="#1F1F1F"/>
<path d="M91.4185 57.289C87.6618 57.289 84.2664 56.4221 81.2321 54.6882C78.246 52.9062 75.8619 50.498 74.0799 47.4638C72.3461 44.4295 71.4791 41.01 71.4791 37.2051C71.4791 33.4002 72.2738 30.0048 73.8632 27.0187C75.5007 23.9844 77.7162 21.6003 80.5097 19.8665C83.3031 18.0845 86.4578 17.1934 89.9736 17.1934C92.8153 17.1934 95.4401 17.7955 97.8483 18.9995C100.256 20.1555 102.279 21.7448 103.917 23.7677V4.26173C103.917 3.15398 104.254 2.26297 104.928 1.58869C105.651 0.91441 106.542 0.577271 107.601 0.577271C108.709 0.577271 109.6 0.91441 110.274 1.58869C110.949 2.26297 111.286 3.15398 111.286 4.26173V37.2051C111.286 41.01 110.395 44.4295 108.613 47.4638C106.879 50.498 104.519 52.9062 101.533 54.6882C98.5466 56.4221 95.1752 57.289 91.4185 57.289ZM91.4185 50.787C93.8748 50.787 96.0662 50.2091 97.9928 49.0531C99.9193 47.8491 101.436 46.2115 102.544 44.1405C103.652 42.0695 104.206 39.7577 104.206 37.2051C104.206 34.6043 103.652 32.2925 102.544 30.2696C101.436 28.2468 99.9193 26.6574 97.9928 25.5015C96.0662 24.2975 93.8748 23.6954 91.4185 23.6954C89.0104 23.6954 86.819 24.2975 84.8443 25.5015C82.9178 26.6574 81.3766 28.2468 80.2207 30.2696C79.1129 32.2925 78.5591 34.6043 78.5591 37.2051C78.5591 39.7577 79.1129 42.0695 80.2207 44.1405C81.3766 46.2115 82.9178 47.8491 84.8443 49.0531C86.819 50.2091 89.0104 50.787 91.4185 50.787Z" fill="#1F1F1F"/>
<path d="M30 54C30 55.1046 30.8954 56.0047 31.9999 56.0168C34.9924 56.0498 37.9354 56.0375 40.7151 54.9067C44.1123 53.5247 47.1989 51.499 49.799 48.9454C52.399 46.3918 54.4615 43.3602 55.8686 40.0238C57.2758 36.6873 58 33.1114 58 29.5C58 25.8886 57.2758 22.3127 55.8686 18.9762C54.4615 15.6398 52.399 12.6082 49.799 10.0546C47.1989 7.50095 44.1123 5.47532 40.7151 4.09331C37.9349 2.96227 34.9914 2.28046 31.9984 2.07013C30.8965 1.99269 30 2.89543 30 4L30 13C30 14.1046 30.9105 15.0092 31.9597 15.3543C33.1243 15.7374 34.2661 16.3526 35.3576 16.7967C37.0561 17.4877 38.5995 18.5005 39.8995 19.7773C41.1995 21.0541 42.2307 22.5699 42.9343 24.2381C43.6379 25.9063 44 27.6943 44 29.5C44 31.3057 43.6379 33.0937 42.9343 34.7619C42.2307 36.4301 41.1995 37.9459 39.8995 39.2227C38.5995 40.4995 37.0561 41.5123 35.3576 42.2033C34.2767 42.6431 33.1464 42.947 31.9935 43.1099C30.8998 43.2644 30 44.1454 30 45.25L30 54Z" fill="#1F1F1F"/>
<path d="M18.5025 15C16.7657 15 15.1326 14.3233 13.9042 13.0948C12.6766 11.8683 12 10.2359 12 8.49897C12 6.76283 12.675 5.13167 13.9013 3.90645C15.1305 2.67668 16.7644 2 18.5017 2C20.2364 2 21.8686 2.67544 23.0941 3.90231C24.3234 5.13084 25 6.76406 25 8.50021C25 10.2372 24.3238 11.8696 23.0954 13.0981C21.8686 14.3241 20.2372 15 18.5025 15Z" fill="#1F1F1F"/>
</svg>
