<svg width="256" height="256" viewBox="0 0 256 256" fill="none" xmlns="http://www.w3.org/2000/svg">
<g clip-path="url(#clip0_869_110)">
<path d="M11.2179 145.618C5.82847 140.228 2.83114 133.093 2.78115 125.527C2.73619 117.951 5.63674 110.851 10.9534 105.527C16.2663 100.209 23.352 97.3067 30.9181 97.3592C32.4703 97.3692 34.1078 97.5506 36.0739 97.9239C36.5818 98.0265 37.1331 98.1626 37.6807 98.3025C38.7849 98.5938 39.8703 98.9321 40.9752 99.3457C41.5412 99.5596 42.1007 99.7748 42.6644 100.035C43.6742 100.507 44.7305 101.088 45.7708 101.753L46.4256 102.124C46.5484 102.192 46.6699 102.252 46.785 102.324L51.6739 106.565C52.2424 107.182 52.8002 107.906 53.3824 108.668L53.5044 108.828C53.7151 109.087 53.8858 109.278 54.0616 109.472C54.1245 109.54 54.1899 109.605 54.2452 109.681L54.4073 109.911L54.5856 110.102C54.9154 110.45 55.2425 110.789 55.576 111.123C63.2972 118.844 74.1713 123.223 85.4117 123.131C96.6151 123.04 107.275 118.498 114.654 110.672L114.867 110.447L115.04 110.187C115.233 109.899 115.472 109.649 115.702 109.386C115.891 109.174 116.079 108.96 116.266 108.729L116.811 108.046C117.13 107.635 117.452 107.218 117.813 106.839L122.297 102.96L122.422 102.892L122.506 102.808C122.626 102.736 123.346 102.347 123.346 102.347C124.673 101.534 125.675 100.988 126.614 100.562C127.133 100.33 127.688 100.132 128.257 99.9243C129.301 99.5372 130.41 99.1978 131.592 98.9034L131.775 98.8587C132.237 98.7457 132.696 98.6327 133.18 98.5415C135.125 98.1972 136.752 98.0369 138.277 98.0493C145.853 98.0993 152.992 101.093 158.385 106.486C163.775 111.876 166.769 119.011 166.822 126.582C166.919 142.207 154.276 154.837 138.652 154.734C137.102 154.727 135.432 154.543 133.538 154.166C133.012 154.074 132.593 153.96 132.157 153.846L131.921 153.782C130.745 153.478 129.638 153.128 128.639 152.752C128.048 152.53 127.497 152.319 126.968 152.073C125.933 151.595 124.896 151.027 123.783 150.326C123.547 150.182 123.326 150.059 123.107 149.934C122.975 149.858 122.837 149.786 122.706 149.705L117.925 145.543C117.388 144.949 116.857 144.269 116.301 143.553L116.06 143.245C115.879 143.013 115.697 142.813 115.526 142.617C115.456 142.539 115.38 142.463 115.317 142.377L115.186 142.208L115.005 141.997C114.684 141.651 114.358 141.312 114.023 140.977C106.3 133.253 95.4241 128.874 84.1901 128.962C72.9842 129.05 62.3192 133.592 54.9325 141.417L54.7174 141.645L54.5381 141.904C54.364 142.173 54.1412 142.414 53.9325 142.656C53.7137 142.906 53.505 143.153 53.2951 143.411C53.1295 143.615 52.9196 143.879 52.7136 144.144C52.4178 144.514 52.1347 144.885 51.8107 145.222L47.1483 149.24C47.0138 149.326 46.8613 149.404 46.709 149.487L46.2074 149.763C45.0118 150.51 43.9654 151.081 42.9781 151.53C42.4584 151.762 41.885 151.966 41.3014 152.181C40.2551 152.565 39.1741 152.897 38.0137 153.18C37.4602 153.318 36.9411 153.447 36.4269 153.543C34.4158 153.9 32.8328 154.057 31.292 154.04C23.7221 153.989 16.5972 150.997 11.2179 145.618Z" fill="#1F1F1F"/>
<path d="M81.0167 248.32C73.3946 248.32 66.2278 245.35 60.8368 239.959C55.4495 234.576 52.4801 227.413 52.4801 219.79C52.4801 212.171 55.4422 205.012 60.8241 199.635C66.2187 194.238 73.3892 191.269 81.0131 191.269C88.6261 191.269 95.7893 194.233 101.168 199.617C106.562 205.009 109.532 212.176 109.532 219.795C109.532 227.418 106.564 234.582 101.173 239.973C95.7892 245.354 88.6297 248.32 81.0167 248.32Z" fill="#1F1F1F"/>
<path d="M82.2967 63.4514C74.6746 63.4514 67.5078 60.4817 62.1169 55.0903C56.7295 49.7079 53.7601 42.544 53.7601 34.9212C53.7601 27.302 56.7222 20.1436 62.1041 14.7666C67.4987 9.36969 74.6692 6.40002 82.2931 6.40002C89.9061 6.40002 97.0693 9.36423 102.448 14.7485C107.842 20.1399 110.812 27.3075 110.812 34.9266C110.812 42.5495 107.844 49.7133 102.453 55.1048C97.0693 60.4854 89.9097 63.4514 82.2967 63.4514Z" fill="#1F1F1F"/>
<path d="M129.28 239.36C129.28 244.308 133.292 248.341 138.24 248.395C151.646 248.543 164.831 248.488 177.284 243.422C192.503 237.231 206.331 228.156 217.979 216.716C229.628 205.275 238.867 191.694 245.171 176.747C251.475 161.799 254.72 145.779 254.72 129.6C254.72 113.421 251.475 97.4007 245.171 82.4534C238.867 67.5061 229.628 53.9246 217.979 42.4845C206.331 31.0443 192.503 21.9694 177.284 15.7781C164.828 10.711 151.641 7.65647 138.233 6.71419C133.296 6.36729 129.28 10.4115 129.28 15.36L129.28 55.68C129.28 60.6285 133.359 64.6812 138.06 66.2274C143.277 67.9436 148.392 70.6998 153.282 72.689C160.891 75.7847 167.806 80.3221 173.63 86.0422C179.454 91.7623 184.074 98.553 187.226 106.027C190.378 113.5 192 121.511 192 129.6C192 137.689 190.378 145.7 187.226 153.173C184.074 160.647 179.454 167.438 173.63 173.158C167.806 178.878 160.891 183.415 153.282 186.511C148.439 188.481 143.376 189.843 138.211 190.572C133.311 191.265 129.28 195.212 129.28 200.16L129.28 239.36Z" fill="#1F1F1F"/>
</g>
<defs>
<clipPath id="clip0_869_110">
<rect width="256" height="256" fill="white"/>
</clipPath>
</defs>
</svg>
